<?xml version="1.0" standalone="no"?>
<!DOCTYPE svg PUBLIC "-//W3C//DTD SVG 20010904//EN"
 "http://www.w3.org/TR/2001/REC-SVG-20010904/DTD/svg10.dtd">
<svg version="1.0" xmlns="http://www.w3.org/2000/svg"
 width="300.000000pt" height="300.000000pt" viewBox="0 0 300.000000 300.000000"
 preserveAspectRatio="xMidYMid meet">
<metadata>
Created by potrace 1.10, written by Peter Selinger 2001-2011
</metadata>
<g transform="translate(0.000000,300.000000) scale(0.100000,-0.100000)"
fill="#00df43" stroke="none">
<path d="M1221 2743 c-29 -11 -39 -18 -30 -24 7 -4 21 -3 30 2 28 14 143 11
183 -6 20 -9 41 -13 46 -10 6 4 7 -1 3 -11 -4 -12 -3 -15 5 -10 7 4 12 1 12
-9 0 -9 5 -13 11 -9 6 3 14 3 18 -2 3 -5 21 -17 38 -26 36 -19 53 -10 23 12
-13 9 -16 19 -11 29 13 25 10 71 -5 71 -9 0 -11 -10 -7 -35 3 -19 3 -35 -1
-35 -4 0 -31 18 -60 40 -52 39 -55 40 -132 39 -44 0 -99 -7 -123 -16z"/>
<path d="M1468 2753 c12 -2 30 -2 40 0 9 3 -1 5 -23 4 -22 0 -30 -2 -17 -4z"/>
<path d="M1593 2690 l1 -50 36 35 c38 37 67 45 76 20 4 -8 11 -15 16 -15 23 0
138 -105 138 -126 0 -6 9 -21 20 -34 11 -13 23 -35 26 -49 3 -14 12 -44 19
-66 20 -56 31 -150 17 -141 -6 3 -13 2 -17 -4 -8 -12 4 -52 13 -46 4 2 8 -7 8
-21 2 -22 1 -23 -15 -9 -10 9 -20 16 -22 16 -3 0 -2 -26 2 -57 9 -82 4 -132
-15 -151 -13 -14 -18 -14 -25 -4 -6 10 -11 10 -21 -3 -12 -14 -11 -28 4 -89
16 -64 17 -84 7 -172 -6 -54 -16 -100 -21 -102 -6 -2 -10 -10 -10 -18 0 -21
-45 -106 -74 -142 -30 -35 -32 -44 -10 -35 12 4 5 -14 -21 -63 -21 -38 -43
-75 -48 -82 -15 -19 -20 -6 -7 20 l11 23 -19 -22 c-11 -12 -22 -20 -25 -17 -3
3 -14 -9 -23 -28 -14 -26 -19 -29 -22 -15 -2 10 8 33 23 52 14 19 23 35 20 35
-12 0 -36 -30 -50 -63 -15 -37 -32 -54 -55 -55 -8 0 -36 -2 -62 -5 -74 -9 -89
29 -18 46 27 7 80 77 58 77 -7 0 -21 -11 -33 -24 -11 -13 -31 -27 -45 -31 -22
-5 -23 -4 -8 7 9 7 25 18 35 24 10 7 15 15 12 18 -7 7 -69 -41 -67 -52 2 -12
-14 -42 -23 -42 -4 0 -6 8 -2 18 5 14 3 14 -11 -3 -11 -12 -19 -16 -22 -9 -3
6 -10 19 -17 28 -10 13 -12 8 -14 -33 -3 -59 0 -61 115 -68 83 -5 85 -4 145
33 112 68 134 92 183 188 24 50 58 112 74 137 35 55 57 154 59 278 2 99 7 123
33 168 21 35 58 237 58 320 0 70 -33 205 -64 256 -31 53 -151 175 -183 188
-13 5 -50 9 -82 9 l-58 0 0 -50z m-183 -1502 c0 -5 -7 -8 -15 -8 -13 0 -35 28
-35 45 0 9 49 -28 50 -37z m-56 17 c3 -9 0 -15 -9 -15 -8 0 -15 7 -15 15 0 8
4 15 9 15 5 0 11 -7 15 -15z"/>
<path d="M742 2638 l2 -83 3 73 4 73 112 -3 112 -3 3 -38 c2 -21 -2 -45 -9
-53 -6 -8 -9 -17 -6 -20 10 -10 33 50 36 94 l3 42 -131 0 -131 0 2 -82z"/>
<path d="M1209 2707 c-19 -7 -46 -20 -60 -30 l-24 -18 40 6 c22 4 54 11 72 17
22 8 48 9 87 2 44 -9 53 -8 45 2 -10 12 -33 19 -96 28 -16 2 -44 -1 -64 -7z"/>
<path d="M1845 2711 c11 -4 56 -9 100 -10 44 -1 83 -5 87 -9 4 -4 9 -38 11
-77 3 -69 3 -69 5 18 l2 87 -112 -1 c-66 0 -105 -4 -93 -8z"/>
<path d="M2320 2623 c0 -104 7 -106 12 -3 l3 75 70 3 c103 5 154 -5 165 -31 8
-19 9 -18 9 11 l1 32 -130 0 -130 0 0 -87z"/>
<path d="M1670 2686 c-8 -6 -24 -22 -35 -35 l-20 -24 43 23 c23 13 42 27 42
31 0 15 -15 17 -30 5z"/>
<path d="M1175 2646 c-148 -23 -157 -26 -153 -44 4 -23 38 -29 38 -7 0 14 8
16 43 13 29 -4 60 2 101 19 33 12 73 22 90 22 l31 -1 -35 -8 c-19 -4 -71 -26
-115 -50 -81 -42 -212 -100 -229 -100 -5 0 -1 9 9 20 10 11 16 23 13 26 -8 7
-49 -46 -43 -56 2 -4 -12 -26 -31 -49 -20 -23 -34 -44 -32 -47 6 -5 55 42 75
74 12 17 25 22 62 23 25 0 55 4 66 9 17 7 16 9 -10 10 l-30 2 29 8 c16 5 33 7
37 5 4 -3 9 -1 11 4 1 4 39 25 83 46 44 21 86 45 93 52 7 7 24 13 37 13 12 0
25 7 29 15 7 19 -51 19 -169 1z"/>
<path d="M1440 2618 c-41 -5 -97 -15 -125 -24 -45 -15 -245 -134 -287 -171 -9
-8 -21 -13 -25 -10 -12 7 -39 -10 -31 -18 4 -4 25 -4 47 0 38 6 65 22 181 105
30 21 63 39 73 39 10 1 37 10 59 21 65 31 180 28 250 -7 51 -25 98 -65 98 -83
0 -4 4 -10 8 -12 12 -5 72 -125 72 -144 0 -10 11 -45 25 -79 13 -34 27 -80 31
-103 l7 -42 -88 0 c-109 0 -210 -16 -250 -40 -47 -29 -99 -35 -128 -15 -51 33
-277 29 -363 -6 l-29 -12 30 -7 30 -6 -32 -5 c-41 -7 -61 4 -45 23 6 8 15 38
21 68 5 30 12 66 15 79 4 19 -4 14 -40 -25 l-45 -49 6 -62 c5 -43 3 -63 -4
-63 -7 0 -14 14 -18 31 -3 18 -9 27 -15 21 -5 -5 -4 -20 2 -37 8 -20 7 -31 -1
-41 -20 -24 11 -17 47 11 22 17 45 25 73 25 34 0 41 3 41 19 0 28 6 30 122 42
92 10 108 9 153 -8 42 -16 51 -23 53 -47 6 -51 -8 -93 -41 -126 -31 -31 -31
-32 -7 -25 l25 8 -22 -19 c-37 -33 -37 -56 2 -94 19 -19 35 -30 35 -26 0 5
-11 17 -25 28 -29 22 -32 50 -9 69 21 18 44 64 64 129 14 47 20 55 40 55 20 0
31 -12 55 -59 43 -84 92 -101 217 -75 84 18 104 34 124 101 12 38 23 58 33 58
19 0 27 76 11 96 -6 6 -10 16 -9 20 1 5 0 11 -1 14 -1 3 -4 18 -6 35 -3 16
-19 58 -35 91 -16 34 -29 67 -29 73 0 7 -9 29 -19 49 -10 20 -21 48 -22 61 -2
14 -23 43 -46 64 -24 22 -43 46 -43 53 0 8 -9 14 -20 14 -11 0 -41 10 -68 23
-42 20 -55 21 -122 15z m-330 -163 c0 -2 -15 -12 -32 -20 l-33 -16 25 20 c24
20 40 26 40 16z m690 -387 c63 0 80 -12 32 -23 -26 -5 -28 -10 -29 -54 0 -26
-8 -61 -16 -77 -14 -26 -24 -32 -80 -42 -156 -29 -211 -3 -224 108 -3 28 -4
50 -2 50 2 0 36 12 74 25 55 19 82 23 128 19 31 -3 84 -6 117 -6z"/>
<path d="M1583 2048 c-22 -7 -33 -17 -33 -29 0 -11 5 -19 11 -19 5 0 7 5 4 10
-3 6 -1 10 5 10 6 0 13 -7 16 -15 7 -18 41 -19 81 -4 40 15 45 31 16 46 -29
15 -55 15 -100 1z m90 -23 c1 -5 -6 -11 -15 -13 -11 -2 -18 3 -18 13 0 17 30
18 33 0z"/>
<path d="M2493 2610 c-85 -51 -83 -167 2 -220 64 -40 153 -12 181 55 19 47 18
84 -6 122 -37 61 -116 81 -177 43z m105 -14 c48 -25 66 -53 63 -99 -4 -72 -69
-119 -135 -97 -88 29 -103 137 -26 197 20 17 65 16 98 -1z"/>
<path d="M932 2560 c-8 -13 -8 -20 -2 -20 6 0 13 7 17 15 9 24 -1 27 -15 5z"/>
<path d="M1024 2555 c-16 -12 -16 -14 -3 -15 9 0 22 7 29 15 16 19 0 19 -26 0z"/>
<path d="M470 1845 c0 -388 4 -705 8 -705 5 0 17 7 28 16 16 13 17 15 1 10
-16 -5 -17 30 -15 677 l3 682 113 3 c155 4 145 22 -13 22 l-125 0 0 -705z"/>
<path d="M2082 2542 c-12 -2 -20 -6 -18 -10 2 -4 56 -6 120 -4 71 2 114 7 111
13 -6 9 -163 10 -213 1z"/>
<path d="M1149 2436 c-34 -31 -64 -46 -123 -62 -35 -9 -52 -10 -57 -3 -5 8
-13 8 -27 0 -11 -6 -30 -11 -41 -11 -29 0 -76 -83 -73 -128 3 -32 -14 -69 -45
-100 -24 -24 -13 -33 17 -15 17 10 41 33 53 51 12 18 53 58 91 88 37 31 62 46
54 35 -8 -11 -26 -30 -40 -41 -15 -11 -37 -36 -49 -56 -29 -48 -100 -113 -121
-114 -10 0 -18 -4 -18 -9 0 -5 -3 -16 -6 -25 -3 -9 -1 -16 5 -16 6 0 11 7 11
15 0 8 3 15 8 15 4 0 27 18 51 40 24 21 47 37 51 35 11 -7 41 30 33 39 -4 4 0
4 8 1 11 -4 31 10 62 45 53 59 86 116 62 106 -8 -3 -15 -1 -15 4 0 5 9 12 20
15 11 3 20 10 20 14 0 5 14 14 30 21 17 7 36 20 43 30 7 9 17 19 24 21 7 2 9
9 5 16 -6 9 -15 6 -33 -11z m-215 -166 c-49 -49 -90 -90 -92 -90 -11 0 44 83
63 96 14 9 23 19 21 21 -3 3 -18 -4 -34 -16 -38 -27 -45 -27 -31 2 7 12 15 28
19 36 3 8 15 16 26 17 57 8 75 12 81 18 3 3 13 6 21 6 8 0 -26 -40 -74 -90z"/>
<path d="M2567 2343 c-10 -10 -7 -1255 3 -1278 5 -11 9 259 9 633 1 358 0 652
-2 652 -2 0 -7 -3 -10 -7z"/>
<path d="M1565 2193 c-11 -3 -28 -11 -38 -18 -16 -11 -16 -14 -2 -25 11 -9 29
-10 63 -5 26 4 64 7 85 6 26 -1 37 3 37 13 0 27 -86 44 -145 29z"/>
<path d="M1163 2131 c-18 -12 -33 -17 -33 -13 -1 9 -30 -29 -30 -39 0 -4 26
-1 58 7 31 7 81 13 110 14 38 0 54 4 59 15 9 24 -2 29 -70 33 -49 2 -69 -1
-94 -17z"/>
<path d="M840 2077 c-25 -23 -52 -51 -60 -62 -8 -11 0 -7 18 9 37 35 43 21 8
-18 -23 -24 -24 -28 -11 -58 7 -18 25 -44 40 -58 34 -31 65 -91 65 -125 0 -14
5 -25 10 -25 6 0 10 12 10 26 0 14 4 23 9 20 13 -9 31 41 31 89 0 53 -15 67
-24 22 -4 -19 -2 -33 4 -35 15 -5 12 -28 -5 -42 -12 -10 -15 -7 -21 15 -4 15
-9 22 -13 17 -4 -6 -11 -5 -18 3 -9 10 -8 17 8 31 25 22 24 37 -2 29 -14 -5
-28 1 -47 20 -26 26 -26 27 -7 41 10 8 16 14 12 14 -4 0 -2 10 5 23 9 17 39
109 34 107 -1 -1 -21 -20 -46 -43z"/>
<path d="M1115 2023 c-23 -6 -55 -32 -55 -45 0 -4 18 4 40 18 22 15 40 28 40
30 0 2 -1 3 -2 3 -2 -1 -12 -4 -23 -6z"/>
<path d="M1164 2015 c-18 -7 -50 -30 -73 -50 l-42 -38 36 -24 c19 -13 35 -28
35 -33 0 -6 5 -10 11 -10 6 0 9 9 6 20 -4 16 0 20 21 21 17 1 8 5 -25 13 -50
11 -81 26 -52 26 8 0 22 9 32 20 14 17 21 18 37 10 18 -10 85 -7 149 6 l24 5
-22 23 c-26 28 -88 33 -137 11z m60 -26 c-3 -5 -10 -7 -15 -4 -5 4 -9 1 -9 -6
0 -7 -3 -9 -6 -6 -9 9 16 38 27 31 5 -3 7 -10 3 -15z m64 3 c2 -7 -3 -12 -12
-12 -9 0 -16 7 -16 16 0 17 22 14 28 -4z m-108 -7 c0 -9 -6 -12 -15 -9 -8 4
-15 10 -15 15 0 5 7 9 15 9 8 0 15 -7 15 -15z"/>
<path d="M1021 1912 c15 -32 35 -64 44 -72 11 -9 49 -15 114 -17 71 -2 90 -1
73 7 -13 6 -28 7 -33 4 -6 -3 -36 -3 -69 1 -70 8 -96 29 -112 91 -8 29 -18 44
-29 44 -14 0 -12 -9 12 -58z"/>
<path d="M1158 1933 c12 -2 30 -2 40 0 9 3 -1 5 -23 4 -22 0 -30 -2 -17 -4z"/>
<path d="M1430 1859 c0 -8 -9 -25 -20 -39 -23 -29 -26 -52 -6 -44 15 6 42 81
33 91 -4 3 -7 0 -7 -8z"/>
<path d="M1524 1819 c33 -26 33 -49 1 -79 -25 -24 -32 -40 -16 -40 4 0 20 18
35 39 23 32 26 43 17 60 -6 11 -20 25 -31 31 -31 17 -34 11 -6 -11z"/>
<path d="M1092 1765 c-20 -65 -27 -129 -14 -121 7 4 12 23 12 42 0 20 5 44 11
55 5 11 9 30 7 42 -3 17 -7 14 -16 -18z"/>
<path d="M1320 1755 c0 -2 14 -11 30 -20 17 -9 30 -11 30 -6 0 6 -9 15 -19 21
-21 11 -41 13 -41 5z"/>
<path d="M1469 1739 c-21 -18 -21 -20 -4 -14 11 4 28 10 38 12 9 3 17 9 17 14
0 16 -27 10 -51 -12z"/>
<path d="M1620 1685 c-28 -11 -32 -15 -17 -20 29 -12 19 -21 -40 -41 -73 -23
-217 -23 -288 -1 -27 9 -51 14 -54 11 -10 -9 23 -23 69 -30 25 -3 59 -10 77
-15 61 -19 295 33 278 61 -3 4 2 11 11 14 11 4 15 2 11 -8 -3 -8 1 -20 8 -26
21 -18 44 32 25 55 -15 18 -32 18 -80 0z"/>
<path d="M1196 1681 c-40 -8 -61 -41 -42 -66 16 -23 29 -15 50 30 10 21 22 33
28 29 7 -4 8 -2 4 4 -4 7 -8 11 -9 11 -1 -1 -15 -4 -31 -8z"/>
<path d="M920 1645 c0 -8 5 -15 10 -15 6 0 10 7 10 15 0 8 -4 15 -10 15 -5 0
-10 -7 -10 -15z"/>
<path d="M1348 1653 c-19 -5 -24 -18 -9 -27 5 -4 11 0 14 6 3 10 7 10 20 0 18
-15 37 -8 37 14 0 14 -25 17 -62 7z"/>
<path d="M936 1606 c3 -9 11 -16 16 -16 13 0 5 23 -10 28 -7 2 -10 -2 -6 -12z"/>
<path d="M1095 1591 c9 -18 20 -29 25 -26 14 9 -5 50 -24 53 -16 4 -16 2 -1
-27z"/>
<path d="M207 1532 c-15 -9 -37 -36 -48 -59 -17 -35 -18 -48 -10 -80 16 -59
72 -103 129 -103 41 0 94 38 116 84 17 35 18 42 4 85 -25 81 -120 117 -191 73z
m121 -21 c33 -18 52 -52 52 -94 0 -61 -58 -108 -122 -98 -26 4 -34 9 -54 32
-81 92 17 218 124 160z"/>
<path d="M1020 1493 c44 -70 154 -196 158 -183 3 7 -2 16 -9 21 -8 5 -11 9 -7
9 4 0 -9 17 -28 38 -20 20 -42 51 -49 67 -12 27 -76 95 -89 95 -3 0 8 -21 24
-47z"/>
<path d="M1401 1496 c-11 -13 -10 -17 3 -22 23 -9 68 5 63 19 -6 18 -52 20
-66 3z"/>
<path d="M1126 1465 c-3 -9 1 -33 10 -53 9 -20 18 -32 21 -25 2 7 0 21 -6 32
-16 29 -13 41 7 34 18 -7 17 -5 -9 15 -14 10 -18 10 -23 -3z"/>
<path d="M1182 1398 c17 -75 45 -113 56 -79 2 6 -3 8 -12 5 -10 -4 -17 2 -21
18 -4 13 -5 28 -4 34 4 14 -12 64 -21 64 -4 0 -3 -19 2 -42z"/>
<path d="M1595 1370 c-4 -7 2 -9 18 -5 19 5 26 2 30 -12 4 -15 5 -14 6 5 1 17
-4 22 -23 22 -14 0 -28 -5 -31 -10z"/>
<path d="M1250 1352 c-13 -14 -12 -15 2 -9 9 3 18 1 21 -6 2 -6 6 -4 10 5 8
22 -15 29 -33 10z"/>
<path d="M1303 1350 c-17 -27 -17 -49 0 -25 11 14 16 15 22 5 8 -12 -11 -33
-39 -43 -8 -3 -7 -8 2 -18 10 -11 12 -11 12 2 0 7 11 22 25 32 23 16 24 16 39
-5 l16 -22 0 26 c0 21 -6 28 -29 33 -17 3 -31 13 -33 21 -2 11 -6 10 -15 -6z"/>
<path d="M1780 1364 c0 -3 16 -21 36 -40 33 -30 36 -38 31 -70 -10 -60 -73
-180 -122 -232 -63 -68 -155 -116 -220 -115 -27 0 -67 7 -87 16 -65 27 -227
165 -300 255 -15 17 -30 28 -33 22 -3 -5 -2 -10 2 -10 5 0 25 -22 46 -50 43
-58 213 -202 273 -231 93 -44 204 -17 303 76 83 78 151 210 151 295 0 32 -6
43 -33 64 -33 26 -47 31 -47 20z"/>
<path d="M1417 1340 c-3 -11 -2 -20 3 -20 4 0 10 9 13 20 3 11 2 20 -3 20 -4
0 -10 -9 -13 -20z"/>
<path d="M918 1327 c-50 -22 -56 -30 -62 -93 -10 -98 -38 -274 -51 -324 -8
-30 -15 -93 -15 -140 0 -86 -15 -251 -26 -296 -3 -13 -14 -24 -23 -24 -14 0
-14 -2 -1 -10 8 -5 58 -10 111 -10 l95 0 13 76 c7 42 11 77 9 80 -2 2 -12 -27
-22 -64 l-19 -67 -74 0 c-74 0 -74 0 -69 25 3 14 10 59 16 100 6 41 15 100 20
131 12 69 13 106 1 113 -4 3 3 56 16 118 14 62 25 136 25 163 -1 40 1 45 8 25
5 -17 8 -19 9 -7 1 20 17 23 25 5 3 -7 4 21 2 62 -5 88 6 108 76 140 41 19 41
20 13 19 -16 -1 -51 -10 -77 -22z"/>
<path d="M1533 1308 c-18 -22 -33 -45 -33 -52 0 -7 4 -6 9 2 4 8 12 13 17 11
5 -1 11 6 13 17 1 10 10 27 19 37 8 9 13 19 11 21 -2 2 -19 -14 -36 -36z"/>
<path d="M1863 1327 c2 -6 17 -18 33 -26 16 -8 45 -22 64 -32 19 -9 87 -37
150 -62 63 -25 147 -60 185 -78 39 -18 72 -34 75 -34 38 -10 60 -18 60 -24 0
-4 19 -16 43 -26 50 -22 129 -80 175 -127 l33 -35 3 -129 c2 -71 7 -129 12
-129 5 0 10 61 12 135 l3 134 -65 61 c-69 65 -194 134 -391 215 -118 48 -115
47 -230 100 -124 58 -168 73 -162 57z"/>
<path d="M1251 1300 c-13 -11 -19 -20 -13 -20 10 0 42 27 42 36 0 7 -4 5 -29
-16z"/>
<path d="M789 1292 c-29 -22 -75 -43 -154 -72 -75 -27 -106 -42 -101 -48 5 -4
85 24 126 45 14 7 31 13 38 13 17 0 68 28 105 58 34 26 21 30 -14 4z"/>
<path d="M946 1271 c-12 -19 3 -234 21 -306 12 -47 15 -94 10 -215 -5 -170 7
-164 18 8 4 64 2 137 -5 182 -6 41 -17 136 -23 210 -8 85 -15 130 -21 121z"/>
<path d="M993 1248 c4 -7 24 -56 45 -108 44 -108 91 -190 108 -190 6 0 17 -7
24 -15 7 -8 17 -15 22 -15 6 0 -8 20 -30 44 -23 25 -44 57 -48 73 -4 15 -13
37 -20 48 -27 38 -14 38 20 -1 19 -21 37 -37 40 -34 3 3 -5 17 -17 30 -51 56
-116 140 -122 159 -3 12 -11 21 -17 21 -5 0 -8 -6 -5 -12z"/>
<path d="M1240 1248 c1 -30 50 -63 50 -33 0 9 -6 12 -15 9 -13 -6 -20 6 -16
29 0 4 -3 7 -9 7 -5 0 -10 -6 -10 -12z"/>
<path d="M1160 1216 c0 -23 16 -27 17 -5 1 10 -2 19 -8 19 -5 0 -9 -6 -9 -14z"/>
<path d="M687 1163 c-2 -10 -5 -47 -6 -83 -1 -36 -8 -128 -16 -205 -15 -140
-20 -283 -10 -273 9 8 15 64 23 193 7 97 10 113 16 83 5 -21 12 -38 16 -38 11
0 0 84 -11 88 -5 2 -9 10 -9 18 0 9 4 13 8 10 5 -3 5 23 1 57 -4 34 -6 63 -4
65 2 2 11 -10 21 -27 10 -17 22 -31 26 -31 4 0 8 -12 8 -26 0 -14 -3 -23 -7
-21 -5 3 -7 -42 -5 -99 2 -69 0 -104 -7 -104 -7 0 -11 -34 -10 -97 1 -84 3
-91 10 -53 11 60 39 363 39 420 0 52 -21 118 -41 131 -22 14 -37 11 -42 -8z
m48 -54 c9 -17 15 -38 13 -47 -3 -15 -5 -14 -15 3 -13 24 -25 75 -18 75 2 0
12 -14 20 -31z"/>
<path d="M1882 1108 c-7 -13 -19 -33 -28 -45 -10 -14 -12 -23 -5 -23 6 0 11 5
11 10 0 6 10 24 22 40 12 16 19 32 16 35 -2 3 -10 -5 -16 -17z"/>
<path d="M500 1105 c-10 -12 -3 -32 34 -105 26 -49 55 -124 66 -166 20 -82 30
-102 30 -61 0 67 -62 230 -113 295 -6 8 -6 17 2 26 7 8 8 17 3 20 -6 3 -15 -1
-22 -9z"/>
<path d="M630 963 c0 -64 2 -114 4 -112 2 2 7 55 11 117 5 78 3 112 -4 112 -7
0 -11 -40 -11 -117z"/>
<path d="M1016 1048 c3 -21 7 -103 8 -182 1 -175 15 -158 17 21 2 161 2 155
-16 179 -14 18 -15 16 -9 -18z"/>
<path d="M1779 967 c-8 -7 -24 -25 -34 -42 -20 -31 -18 -30 29 23 31 33 33 40
5 19z"/>
<path d="M322 918 c3 -7 25 -25 51 -39 26 -14 61 -38 78 -55 l32 -29 -19 33
c-10 17 -22 32 -25 32 -4 0 -14 6 -21 13 -35 33 -102 65 -96 45z"/>
<path d="M360 822 c0 -17 54 -102 64 -102 2 0 2 21 1 47 -2 36 -8 49 -27 59
-31 18 -38 17 -38 -4z"/>
<path d="M525 829 c-4 -5 5 -20 19 -32 18 -16 33 -46 46 -95 30 -107 24 -116
-20 -32 -22 41 -52 86 -66 100 l-27 25 21 -31 c12 -17 40 -69 62 -115 l40 -83
-3 -141 -3 -140 -40 4 c-21 1 -42 5 -45 7 -4 2 -6 71 -6 154 1 140 -1 152 -20
172 -13 13 -37 22 -63 24 -22 2 -44 6 -49 9 -15 9 0 47 16 41 8 -3 11 -1 8 4
-3 6 -12 10 -18 10 -23 0 -46 38 -50 82 -2 28 -4 17 -5 -32 -1 -41 -5 -92 -9
-113 l-6 -39 82 4 81 3 0 -177 0 -178 135 0 136 0 -6 78 c-8 91 -11 105 -25
97 -5 -3 -10 -32 -10 -64 0 -40 -5 -63 -15 -71 -12 -10 -15 -10 -15 1 0 10 -2
11 -8 2 -4 -6 -16 -13 -27 -15 -20 -3 -20 2 -17 197 4 186 2 204 -18 260 -30
81 -58 112 -75 84z m-175 -146 c0 -10 -5 -25 -10 -33 -7 -11 -10 -7 -10 18 0
17 5 32 10 32 6 0 10 -8 10 -17z"/>
<path d="M1606 749 c-22 -19 -38 -43 -42 -65 -3 -19 -10 -34 -15 -34 -5 0 -9
-4 -9 -10 0 -25 19 -6 36 36 14 35 31 54 64 75 36 23 40 29 23 29 -12 0 -38
-14 -57 -31z"/>
<path d="M1722 747 c-1 -10 -17 -48 -36 -85 -18 -37 -37 -78 -41 -92 -15 -47
21 -4 55 66 21 44 30 76 27 97 -2 18 -5 24 -5 14z"/>
<path d="M2720 639 c0 -8 7 -23 15 -33 21 -28 19 -83 -5 -113 -40 -51 -119
-71 -139 -35 -6 9 -11 11 -11 5 0 -10 -32 -13 -127 -13 -71 0 -134 -4 -141 -9
-8 -4 -15 -21 -17 -37 -8 -69 -21 -99 -42 -102 -14 -2 -23 3 -26 15 -2 10 -3
8 -2 -5 1 -12 -2 -25 -7 -28 -19 -12 6 -24 51 -24 l49 0 -6 86 -5 86 184 -2
c227 -4 211 -5 243 26 33 34 47 84 35 128 -10 36 -49 81 -49 55z"/>
<path d="M1020 598 c-1 -1 -6 -34 -13 -73 -7 -38 -10 -114 -9 -167 l4 -98 83
0 82 0 11 103 c5 56 6 106 2 111 -17 18 -28 -7 -34 -81 -4 -43 -10 -86 -12
-95 -9 -30 -24 -20 -25 15 0 29 -1 30 -9 10 -11 -26 -10 -26 -44 -14 -23 9
-24 13 -19 64 4 35 2 57 -6 61 -14 9 -15 93 0 101 6 4 8 13 5 21 -7 18 8 18
23 0 6 -7 37 -21 67 -31 37 -12 58 -24 61 -36 3 -11 9 -19 13 -19 4 0 18 -19
29 -41 20 -38 20 -43 6 -58 -8 -10 -15 -30 -15 -45 0 -17 -9 -35 -22 -47 l-23
-18 43 -1 42 0 0 88 0 87 132 -2 133 -2 3 -36 3 -35 92 1 92 2 -69 7 c-72 7
-102 27 -93 62 5 18 -18 28 -67 28 -17 0 -26 4 -20 8 20 18 125 33 220 30 54
-1 129 1 167 6 47 5 67 4 67 -4 0 -6 -8 -14 -17 -17 -10 -4 -23 -13 -29 -21
-9 -13 -12 -12 -17 2 -5 13 -11 15 -26 6 -11 -5 -28 -10 -39 -10 -24 0 -52
-48 -34 -59 10 -6 10 -15 2 -35 l-10 -28 -112 3 -111 3 -2 -42 -2 -42 133 0
134 0 -1 68 c-1 118 -9 107 78 105 45 -1 71 2 64 7 -18 10 -7 40 15 40 12 0
15 -6 10 -26 -7 -27 -7 -27 43 -22 l51 5 0 -88 0 -89 71 0 c62 0 70 2 65 18
-9 31 -25 135 -32 210 -4 40 -11 75 -16 78 -5 3 -41 -1 -81 -10 -105 -23 -236
-36 -367 -36 -77 0 -143 -7 -200 -20 -47 -11 -99 -20 -116 -20 -63 0 -213 51
-346 118 -5 2 -8 2 -8 0z m1117 -104 c2 -27 8 -73 13 -103 6 -30 10 -68 10
-85 l-1 -31 -14 25 c-12 20 -14 21 -15 7 0 -38 -25 -9 -34 39 -4 27 -11 56
-14 64 -3 8 -4 18 -4 23 1 4 -2 7 -8 7 -5 0 -10 8 -10 18 0 9 -4 13 -8 7 -12
-16 -46 -11 -50 7 -2 10 -15 18 -30 20 -51 6 -27 22 52 35 44 7 82 16 85 18
14 14 25 -6 28 -51z m-858 -23 c11 -7 9 -10 -8 -16 -22 -7 -41 0 -41 16 0 11
30 12 49 0z m486 -181 c-4 -6 -54 -10 -118 -10 -76 0 -107 3 -97 10 20 13 223
13 215 0z"/>
</g>
</svg>
