v<?xml version="1.0" standalone="no"?>
<!DOCTYPE svg PUBLIC "-//W3C//DTD SVG 20010904//EN"
 "http://www.w3.org/TR/2001/REC-SVG-20010904/DTD/svg10.dtd">
<svg version="1.0" xmlns="http://www.w3.org/2000/svg"
 width="300.000000pt" height="300.000000pt" viewBox="0 0 300.000000 300.000000"
 preserveAspectRatio="xMidYMid meet">
<metadata>
Created by potrace 1.10, written by Peter Selinger 2001-2011
</metadata>
<g transform="translate(0.000000,300.000000) scale(0.050000,-0.050000)"
fill="#008b8b" stroke="none">
<path d="M1350 5443 c-131 -80 -184 -583 -101 -953 15 -66 33 -205 41 -310 8
-104 22 -232 31 -283 10 -54 10 -120 -1 -156 -21 -74 28 -112 70 -54 14 19 39
28 56 22 23 -9 29 -2 21 27 -7 28 2 42 34 50 30 8 40 22 32 43 -7 17 6 61 27
96 22 36 40 56 40 46 0 -23 49 23 53 50 1 10 3 29 5 40 1 12 11 16 22 9 11 -7
20 7 20 31 0 37 5 40 30 19 38 -32 38 -14 0 60 -43 84 -11 153 46 96 35 -35
85 -37 97 -5 6 16 19 24 29 18 10 -6 18 -1 18 11 0 12 9 17 20 10 44 -27 16
23 -54 94 -41 42 -64 76 -51 76 12 0 28 -9 34 -19 7 -11 24 -15 39 -9 15 6 50
-17 78 -51 64 -76 71 -76 97 -1 26 75 64 76 131 5 53 -56 53 -54 10 55 -10 27
-7 27 25 0 34 -28 36 -26 22 18 -10 30 -8 42 5 35 44 -28 -16 135 -71 194 -33
35 -124 153 -204 263 -313 430 -499 566 -651 473z m441 -845 c8 -12 35 -16 64
-9 40 10 48 7 38 -18 -7 -17 -1 -31 13 -32 13 0 8 -10 -12 -21 -20 -12 -50
-16 -66 -10 -17 7 -25 3 -18 -8 7 -11 -2 -20 -19 -20 -17 0 -31 -7 -31 -16 0
-8 -16 -16 -35 -17 -19 0 -61 -8 -93 -17 -42 -11 -54 -9 -44 7 9 14 2 23 -17
23 -17 0 -31 9 -31 21 0 14 13 13 40 -1 28 -15 52 -15 75 -1 30 17 26 20 -21
20 -31 1 -51 9 -45 20 7 10 -2 26 -18 35 -21 12 1 19 64 21 52 3 98 14 102 25
8 26 37 26 54 -2z"/>
<path d="M4690 4966 c-86 -46 -179 -117 -350 -266 -205 -180 -319 -268 -392
-306 -35 -18 -68 -53 -75 -78 -17 -64 -16 -80 5 -67 11 6 23 -4 27 -24 8 -32
10 -31 26 5 28 66 118 140 125 103 4 -17 -4 -52 -16 -77 l-22 -46 39 45 c53
60 76 57 35 -5 -40 -60 -33 -63 28 -10 31 27 54 34 69 21 13 -11 42 -15 64 -9
23 6 54 -2 69 -17 16 -16 39 -25 53 -20 13 4 44 -6 68 -23 27 -18 55 -24 75
-14 40 20 163 -12 157 -41 -8 -38 39 -41 51 -3 6 20 40 113 74 206 206 552
167 775 -110 626z m56 -391 c-4 -8 -25 -15 -46 -15 -20 0 -41 -11 -46 -25 -5
-14 -14 -20 -22 -13 -22 20 9 76 50 89 21 6 39 22 39 35 1 13 9 6 18 -16 9
-22 12 -47 7 -55z m-206 -30 c27 -2 53 -13 57 -25 4 -12 29 -46 55 -74 42 -46
67 -146 37 -146 -28 0 -72 64 -62 90 7 16 -8 42 -32 59 -48 34 -84 41 -66 13
6 -9 -21 -16 -59 -15 -59 1 -110 53 -52 53 9 0 23 20 30 45 7 27 18 37 27 24
8 -11 37 -22 65 -24z"/>
<path d="M2430 4519 c-7 -21 -3 -54 8 -74 19 -32 21 -32 22 5 0 33 4 35 20 10
15 -24 19 -19 20 23 0 64 -53 92 -70 36z"/>
<path d="M2910 4359 c-7 -11 -24 -19 -37 -17 -59 7 -74 -9 -101 -107 -17 -58
-34 -127 -38 -155 -5 -27 -10 18 -13 100 l-4 150 -29 -70 -29 -70 10 66 c7 41
3 61 -9 54 -11 -7 -20 -62 -20 -122 0 -61 -8 -106 -17 -100 -10 6 -13 33 -8
59 12 64 -32 150 -57 111 -13 -22 -17 -19 -18 11 0 30 -5 34 -24 15 -19 -19
-14 -52 19 -148 51 -147 45 -183 -6 -42 -42 114 -109 199 -109 138 0 -32 -4
-33 -34 -9 -30 24 -32 23 -20 -10 11 -28 7 -35 -16 -26 -18 7 -30 0 -30 -18 0
-16 -14 -29 -31 -29 -19 0 -26 -10 -17 -25 11 -20 8 -20 -13 0 -31 29 -67 34
-50 6 6 -10 3 -24 -9 -31 -11 -7 -20 -1 -20 14 -1 19 -4 20 -16 2 -20 -32
-125 -73 -175 -68 -28 3 -50 -14 -65 -47 -20 -45 -57 -62 -111 -53 -9 2 -21
-14 -26 -35 -6 -21 -34 -50 -64 -65 -119 -61 -146 -83 -119 -101 18 -11 13
-16 -19 -17 -25 0 -44 -7 -43 -15 7 -43 -7 -62 -53 -73 -28 -7 -45 -22 -39
-33 7 -10 2 -19 -10 -19 -13 0 -18 -16 -10 -39 9 -31 1 -43 -39 -53 -51 -12
-72 -48 -29 -48 16 0 15 -10 -2 -30 -21 -25 -19 -38 9 -68 22 -25 26 -43 12
-51 -33 -21 -25 -57 10 -43 17 6 26 3 20 -7 -7 -10 51 -39 128 -64 180 -57
169 -73 -14 -18 -157 46 -165 48 -165 24 0 -29 165 -73 273 -73 57 0 94 -6 82
-13 -12 -7 9 -13 47 -12 37 1 154 -31 258 -70 258 -98 277 -104 240 -77 -16
12 -22 22 -13 22 10 0 8 12 -4 26 -17 20 -6 24 51 17 49 -5 67 -1 58 14 -8 13
-5 23 6 23 11 0 25 -9 32 -20 17 -27 42 -25 74 5 14 14 42 26 61 27 19 1 70 3
113 5 65 2 80 11 90 53 7 28 26 50 42 50 17 0 30 14 30 30 0 17 13 30 29 30
45 0 88 56 77 100 -7 27 -1 40 19 40 37 0 95 116 95 189 0 29 14 85 30 124 36
86 37 93 8 76 -12 -8 -7 9 12 38 18 28 29 67 23 87 -6 20 2 63 17 96 l29 60
-11 -80 c-9 -68 -7 -74 14 -41 13 21 27 64 31 96 14 121 46 131 49 15 1 -60 7
-94 12 -75 5 19 17 35 26 35 20 0 50 79 43 115 -3 14 14 25 36 25 36 0 41 -13
41 -111 0 -94 8 -118 52 -159 28 -26 47 -56 41 -66 -6 -9 -14 -50 -16 -91 -3
-40 -12 -73 -20 -73 -8 0 -24 -49 -37 -110 -12 -60 -31 -114 -41 -121 -11 -6
-19 -25 -19 -41 0 -17 9 -25 19 -19 19 12 66 -124 51 -149 -5 -8 8 -32 28 -54
21 -21 44 -61 52 -88 26 -82 169 -198 246 -198 26 0 41 -9 34 -20 -16 -26 3
-25 54 2 22 12 35 13 29 3 -66 -107 345 -89 577 24 l103 50 -13 96 c-7 52 -33
128 -58 168 -24 41 -36 78 -26 84 33 21 12 88 -45 140 -31 29 -47 53 -34 53
13 0 23 9 23 20 0 11 -13 20 -30 20 -36 0 -40 33 -5 47 14 5 5 11 -19 11 -24
1 -49 19 -56 41 -6 21 -29 44 -49 51 -20 6 -61 47 -91 91 -31 43 -64 79 -74
79 -10 0 -13 9 -7 19 35 56 -71 61 -143 7 -72 -54 -74 -38 -8 43 31 39 31 39
-23 5 -64 -40 -73 -26 -15 23 29 24 34 41 20 63 -16 25 -19 23 -20 -10 -1 -33
-4 -35 -20 -10 -16 25 -20 23 -21 -10 -2 -40 -2 -40 -19 0 -9 22 -18 31 -19
20 -1 -11 -9 -8 -19 7 -12 20 -23 9 -41 -40 -32 -87 -50 -42 -22 57 12 46 13
78 2 82 -10 4 -13 22 -6 40 11 30 8 31 -22 6 -20 -16 -34 -20 -32 -10 10 53
-3 91 -29 82 -15 -6 -49 11 -75 39 -31 33 -62 47 -92 41 -25 -5 -45 1 -45 12
0 39 -67 71 -106 51 -21 -11 -49 -15 -64 -10 -15 6 -31 1 -35 -11 -4 -13 -20
-9 -39 11 -18 18 -47 33 -65 33 -17 0 -31 11 -32 25 0 16 -9 14 -25 -7 -21
-28 -29 -28 -50 -5 -30 32 -57 35 -74 6z m675 -454 c-5 -14 -17 -20 -27 -14
-22 14 -24 76 -4 97 19 18 44 -50 31 -83z m-1435 -305 c-16 -26 22 -25 73 2
58 31 94 -8 50 -52 -19 -18 -27 -43 -20 -55 7 -11 -3 -33 -24 -48 -20 -15 -27
-27 -16 -27 12 0 41 -17 66 -39 59 -51 132 -20 165 72 26 72 45 83 70 40 9
-14 32 -32 51 -39 96 -35 23 -135 -134 -185 -152 -47 -235 -31 -322 65 -87 97
-102 211 -35 261 40 30 94 33 76 5z m1664 -300 c-6 -22 -2 -40 8 -40 10 0 8
-17 -5 -38 -31 -50 28 -120 70 -84 15 12 34 15 43 7 9 -8 11 1 4 20 -7 19 -5
35 5 35 9 0 9 32 0 72 l-16 73 83 -14 c116 -18 140 -44 128 -138 -13 -92 -66
-159 -92 -116 -13 21 -23 18 -46 -15 -56 -79 -136 -74 -256 16 -59 45 -118 85
-129 89 -32 12 12 76 89 128 83 57 128 59 114 5z"/>
<path d="M4266 4152 c4 -12 -5 -34 -20 -49 -33 -33 -18 -57 19 -29 14 11 43
26 65 33 37 12 38 11 5 -14 -55 -43 -23 -93 57 -93 83 0 83 0 7 -81 -73 -78
-67 -111 19 -103 58 6 63 3 45 -31 -11 -20 -18 -62 -14 -92 3 -30 -2 -59 -11
-64 -25 -16 24 -110 50 -95 12 6 2 -8 -23 -32 -57 -55 -56 -59 4 -47 56 11
111 140 112 264 0 39 27 125 60 190 70 142 75 179 20 161 -22 -7 -59 -2 -84
11 l-44 24 44 -55 c24 -31 38 -61 32 -67 -6 -7 -17 -3 -25 8 -8 10 -25 21 -37
23 -13 3 -48 28 -78 55 -30 28 -63 51 -72 51 -9 0 -17 11 -17 25 0 14 -27 26
-61 27 -36 1 -57 -7 -53 -20z"/>
<path d="M1244 3648 c-27 -51 -14 -68 53 -68 44 0 47 3 19 25 -17 14 -35 38
-40 55 -7 23 -14 21 -32 -12z"/>
<path d="M1410 3067 c-33 -6 -69 -20 -80 -31 -14 -15 3 -18 55 -10 42 6 71 4
65 -6 -6 -10 5 -27 25 -38 29 -17 30 -21 3 -21 -17 -1 -31 -14 -31 -31 0 -37
16 -38 52 -5 21 20 24 20 13 0 -9 -16 -1 -25 22 -25 20 0 71 -13 113 -27 l76
-27 -105 -12 c-124 -15 -172 -49 -98 -68 l50 -13 -60 -27 -60 -27 85 6 c47 3
85 -2 85 -12 0 -9 14 -12 31 -5 18 6 26 3 19 -8 -7 -11 2 -20 20 -20 18 0 27
-8 21 -18 -26 -43 155 -62 198 -20 10 10 33 18 51 18 17 0 44 18 60 40 16 22
44 40 63 40 55 0 59 31 5 36 -27 2 -84 21 -127 41 -48 23 -106 35 -149 30 -41
-5 -72 1 -72 13 0 26 112 26 240 -2 56 -12 126 -16 154 -9 l52 13 -75 51
c-210 143 -481 210 -701 174z"/>
<path d="M2000 2990 c0 -17 198 -110 234 -109 31 0 32 3 5 18 -49 29 -239 101
-239 91z"/>
<path d="M3233 2927 c-35 -36 -12 -63 35 -40 27 12 44 29 39 38 -12 19 -56 20
-74 2z"/>
<path d="M4340 2788 c-49 -15 -130 -37 -180 -48 -49 -11 -110 -25 -135 -31
-78 -17 -51 -52 30 -38 226 38 465 107 465 133 0 24 -78 17 -180 -16z"/>
<path d="M4260 2669 c-104 -25 -215 -47 -246 -47 -31 -1 -52 -9 -46 -18 26
-43 525 40 525 87 0 35 4 35 -233 -22z"/>
<path d="M4210 2580 c-99 -20 -169 -37 -155 -38 14 -1 25 -15 25 -32 0 -34 43
-45 213 -55 122 -7 123 -7 155 59 18 39 23 66 10 66 -11 0 -15 9 -8 20 16 26
-24 23 -240 -20z"/>
<path d="M1773 2547 c-54 -16 -92 -34 -86 -40 12 -13 155 30 182 55 23 22 23
22 -96 -15z"/>
<path d="M1780 2438 c-38 -22 -54 -36 -34 -29 21 6 31 2 24 -9 -7 -11 -31 -20
-55 -20 -23 0 -37 -5 -30 -11 21 -22 155 15 155 43 0 16 9 28 20 28 11 0 20 9
20 20 0 28 -20 24 -100 -22z"/>
<path d="M1847 2371 c-23 -16 -45 -26 -49 -22 -5 4 -20 -6 -34 -21 -33 -36 16
-40 52 -4 19 19 30 18 49 -3 17 -18 17 -23 1 -14 -13 8 -30 3 -38 -10 -10 -17
3 -20 50 -10 48 9 60 6 50 -12 -10 -18 -8 -19 10 -3 25 23 10 88 -21 88 -11 0
-14 -9 -7 -20 7 -11 -2 -14 -22 -7 -31 12 -31 15 3 40 50 37 8 34 -44 -2z"/>
<path d="M4210 2360 c33 -8 83 -15 110 -16 l50 0 -50 16 c-27 9 -77 16 -110
16 l-60 -1 60 -15z"/>
<path d="M4067 2316 c20 -10 48 -15 63 -9 15 6 55 3 89 -7 37 -10 61 -10 61 1
0 11 -20 20 -45 22 -185 14 -203 13 -168 -7z"/>
<path d="M703 510 c-66 -36 -105 -80 -56 -63 20 7 44 13 54 13 10 0 27 18 39
40 12 22 19 39 16 38 -3 -1 -27 -13 -53 -28z"/>
<path d="M625 156 c-25 -12 -45 -30 -45 -40 0 -10 -7 -14 -16 -8 -30 18 -62
-20 -51 -62 14 -53 50 -48 126 20 44 39 72 131 34 113 -2 -1 -23 -11 -48 -23z"/>
<path d="M810 97 c-33 -25 -64 -51 -70 -58 -5 -7 -23 -18 -40 -24 -16 -7 2
-12 40 -13 52 -1 79 12 106 49 53 73 33 99 -36 46z"/>
</g>
<g transform="translate(0.000000,300.000000) scale(0.100000,-0.100000)"
fill="#4b0082" stroke="none">
<path d="M685 2730 c-27 -10 -38 -25 -60 -80 -15 -37 -18 -71 -16 -200 1 -91
8 -182 16 -220 8 -36 17 -101 19 -145 3 -44 9 -103 15 -132 6 -30 7 -63 1 -81
-6 -24 -5 -32 8 -37 8 -3 20 0 26 6 8 9 7 10 -3 4 -9 -5 -12 -3 -9 6 6 15 10
15 43 4 17 -6 18 -5 5 7 -8 7 -24 24 -34 36 -16 18 -17 22 -4 17 15 -6 14 -1
-3 44 -10 28 -14 51 -9 51 6 0 10 -3 11 -7 2 -27 9 -47 16 -52 5 -3 8 -16 7
-28 -1 -13 2 -23 7 -23 4 0 14 -3 23 -6 12 -5 14 0 10 23 -8 46 -13 55 -29 49
-11 -4 -15 2 -15 19 0 14 3 25 6 25 11 0 49 -54 46 -65 -2 -5 0 -7 4 -3 4 4
14 2 23 -4 13 -10 14 -10 4 2 -15 17 -17 34 -3 25 6 -4 7 1 3 11 -4 11 -3 15
5 10 6 -3 14 -1 18 5 5 9 11 7 21 -6 7 -11 13 -15 13 -11 0 5 -14 25 -32 45
-18 20 -29 28 -25 19 4 -10 10 -25 14 -35 5 -12 3 -14 -8 -7 -8 5 -18 9 -24 9
-16 0 -17 29 -2 49 13 18 15 18 37 -5 l23 -24 -19 34 c-11 19 -25 36 -33 39
-8 3 -11 0 -7 -6 4 -6 -1 -23 -10 -38 -16 -24 -16 -27 1 -57 l18 -32 -27 25
c-23 20 -27 31 -23 57 3 19 1 36 -5 39 -8 5 -9 1 -5 -10 5 -13 3 -15 -11 -8
-9 5 -23 7 -29 5 -8 -3 -13 4 -13 16 0 24 10 27 28 9 9 -9 12 -9 12 -1 0 7 -9
14 -19 18 -11 3 -22 13 -25 21 -5 13 -2 14 11 9 86 -37 121 -38 81 -3 -19 17
-24 17 -26 4 -2 -8 -9 -13 -18 -9 -7 3 -11 9 -8 14 3 5 -5 9 -18 9 -20 1 -21
2 -7 13 20 15 13 37 -11 37 -10 0 -21 7 -24 16 -9 23 -8 24 12 18 14 -5 14 -3
-3 11 -14 12 -16 19 -8 22 8 3 10 10 4 21 -4 9 -7 36 -6 60 0 23 -2 42 -5 42
-13 0 -6 35 9 47 9 7 11 13 5 13 -7 0 -14 13 -16 29 -3 19 0 27 7 25 7 -3 12
2 12 11 0 9 -6 14 -14 11 -8 -4 -13 2 -13 17 0 18 2 19 11 7 8 -11 9 -8 4 13
-3 16 -2 26 2 24 4 -3 9 7 10 21 0 15 6 28 12 30 6 2 8 8 5 13 -11 19 26 48
54 43 34 -6 118 -60 126 -80 3 -9 11 -12 17 -8 8 4 9 3 5 -5 -9 -14 12 -43 25
-35 5 3 6 -1 4 -8 -3 -8 13 -32 35 -53 22 -22 38 -46 35 -53 -3 -7 0 -10 5 -7
6 3 10 -3 10 -14 0 -12 3 -20 8 -20 18 3 30 -2 36 -16 5 -13 2 -14 -17 -5 -20
10 -19 9 3 -9 13 -10 29 -17 34 -14 5 3 6 1 2 -5 -4 -6 1 -28 10 -49 14 -31
18 -34 22 -18 2 10 -1 21 -7 23 -6 2 -11 8 -11 14 0 6 6 6 15 -2 8 -7 15 -19
15 -26 0 -8 4 -14 10 -14 5 0 7 -6 5 -13 -3 -6 3 -17 13 -23 37 -24 11 48 -38
106 -26 30 -69 86 -96 124 -96 137 -216 247 -268 245 -12 0 -30 -4 -41 -9z
m-32 -85 c-3 -9 -8 -14 -10 -11 -3 3 -2 9 2 15 9 16 15 13 8 -4z m44 -592 c-4
-3 1 -12 11 -19 15 -12 14 -13 -10 -14 -17 0 -28 5 -28 13 0 16 9 27 23 27 6
0 7 -3 4 -7z m46 -123 c3 -14 1 -20 -6 -17 -7 2 -13 13 -13 25 -1 26 11 20 19
-8z"/>
<path d="M936 2618 c3 -5 10 -6 15 -3 13 9 11 12 -6 12 -8 0 -12 -4 -9 -9z"/>
<path d="M805 2610 c-8 -13 5 -13 25 0 13 8 13 10 -2 10 -9 0 -20 -4 -23 -10z"/>
<path d="M718 2543 c-10 -13 -10 -15 0 -9 7 4 19 2 27 -4 19 -16 20 -3 1 15
-12 12 -16 12 -28 -2z"/>
<path d="M730 2495 c-7 -8 -16 -12 -21 -9 -5 3 -9 0 -9 -5 0 -17 15 -13 35 9
10 11 16 20 13 20 -3 0 -11 -7 -18 -15z"/>
<path d="M810 2500 c0 -7 68 -5 76 3 3 2 -14 4 -36 4 -22 0 -40 -3 -40 -7z"/>
<path d="M911 2494 c0 -11 3 -14 6 -6 3 7 2 16 -1 19 -3 4 -6 -2 -5 -13z"/>
<path d="M2362 2495 c-28 -12 -102 -64 -122 -85 -13 -14 -150 -130 -189 -160
-25 -19 -65 -45 -90 -57 -25 -13 -40 -23 -33 -23 8 0 10 -9 7 -27 -6 -27 -6
-27 9 -9 9 11 16 23 16 28 0 4 4 8 10 8 5 0 1 -15 -10 -32 -22 -37 -25 -48
-10 -48 5 0 12 11 16 24 3 14 12 27 20 30 8 3 14 10 14 16 0 20 48 63 82 74
18 6 33 16 33 23 0 12 65 73 78 73 5 0 18 -5 30 -11 21 -10 21 -10 3 5 -11 9
-15 16 -8 16 6 0 9 7 6 15 -4 8 -1 15 5 15 6 0 11 -4 11 -10 0 -5 7 -7 15 -4
14 6 13 8 -2 20 -15 11 -15 13 -3 14 8 0 27 10 41 23 37 33 66 48 105 53 29 3
36 0 43 -18 9 -25 -14 -147 -31 -163 -8 -7 -9 -6 -3 5 7 13 6 13 -6 1 -10 -10
-11 -15 -2 -18 8 -3 9 -12 3 -29 -5 -13 -7 -24 -4 -24 2 0 -4 -10 -15 -22 -11
-11 -18 -24 -16 -28 3 -4 0 -21 -6 -38 -7 -22 -18 -32 -37 -35 l-27 -4 28 -2
c26 -1 40 -21 15 -21 -9 0 -9 -3 -1 -11 9 -9 8 -15 -3 -27 -13 -13 -18 -12
-39 8 -14 13 -28 21 -31 17 -4 -3 8 -18 25 -32 36 -31 38 -41 12 -50 -13 -4
-17 -12 -13 -31 3 -20 0 -26 -17 -31 -20 -5 -30 -23 -13 -23 12 0 8 -36 -6
-53 -7 -7 -10 -16 -7 -18 2 -3 -5 -6 -17 -6 -37 -3 -41 -20 -4 -18 27 0 33 -2
24 -12 -8 -10 -7 -13 3 -13 8 0 1 -11 -16 -25 -25 -20 -26 -23 -9 -19 12 3 25
1 28 -5 4 -6 12 -11 18 -11 7 0 7 4 0 13 -7 8 -6 24 4 52 7 22 14 56 14 75 0
19 15 68 34 110 19 41 47 116 62 165 15 50 35 106 44 125 36 72 48 198 22 237
-13 20 -55 23 -90 8z"/>
<path d="M755 2480 c-11 -5 -15 -9 -8 -9 7 -1 10 -8 7 -16 -4 -8 -1 -15 5 -15
6 0 11 9 11 20 0 11 5 20 11 20 6 0 8 -7 5 -16 -6 -14 -4 -15 9 -4 13 11 13
15 3 21 -15 10 -17 10 -43 -1z"/>
<path d="M860 2471 c0 -5 -15 -12 -32 -16 -28 -6 -30 -8 -14 -14 14 -5 16 -10
8 -15 -7 -4 -16 -4 -22 -1 -5 3 -10 2 -10 -4 0 -18 18 -21 34 -5 9 8 16 20 16
25 0 5 7 9 15 9 8 0 15 7 15 15 0 8 -2 15 -5 15 -3 0 -5 -4 -5 -9z"/>
<path d="M890 2459 c0 -5 7 -9 15 -9 8 0 15 -4 15 -9 0 -5 3 -17 7 -27 4 -12
3 -15 -5 -10 -7 4 -12 3 -12 -2 0 -5 11 -9 25 -9 13 0 22 4 19 9 -3 5 0 16 8
25 12 15 11 15 -10 4 -21 -11 -22 -10 -17 11 5 19 2 23 -20 24 -14 1 -25 -2
-25 -7z"/>
<path d="M710 2446 c0 -2 7 -6 15 -10 8 -3 15 -1 15 4 0 6 -7 10 -15 10 -8 0
-15 -2 -15 -4z"/>
<path d="M680 2430 c0 -5 7 -10 16 -10 8 0 12 5 9 10 -3 6 -10 10 -16 10 -5 0
-9 -4 -9 -10z"/>
<path d="M860 2425 c0 -8 2 -15 4 -15 2 0 6 7 10 15 3 8 1 15 -4 15 -6 0 -10
-7 -10 -15z"/>
<path d="M695 2401 c3 -5 -3 -12 -12 -14 -12 -3 -8 -5 9 -6 15 0 30 -6 34 -13
4 -7 3 -8 -4 -4 -9 5 -10 1 -3 -16 4 -13 6 -28 4 -35 -3 -9 6 -11 32 -8 20 3
34 1 31 -4 -3 -5 14 -11 39 -13 48 -3 48 8 0 15 l-30 4 33 2 c17 0 32 5 32 10
0 16 -24 18 -47 4 -12 -8 -24 -10 -27 -5 -3 5 3 12 14 15 11 3 20 11 20 17 0
7 -7 10 -15 6 -8 -3 -15 -1 -15 3 0 11 26 21 34 13 11 -10 48 -13 41 -2 -3 5
-1 10 4 10 6 0 11 4 11 10 0 6 -9 6 -26 0 -16 -7 -23 -7 -19 0 9 14 -9 12 -23
-2 -10 -10 -14 -10 -21 0 -6 10 -10 10 -21 -3 -11 -13 -10 -15 2 -10 29 11 13
-37 -18 -53 -26 -14 -28 -14 -16 1 9 10 10 17 2 22 -7 4 -7 12 0 26 9 16 7 19
-10 19 -11 0 -20 5 -20 10 0 6 -5 10 -11 10 -5 0 -8 -4 -4 -9z"/>
<path d="M2280 2380 c0 -5 5 -10 11 -10 5 0 7 5 4 10 -3 6 -8 10 -11 10 -2 0
-4 -4 -4 -10z"/>
<path d="M2370 2380 c0 -5 5 -10 11 -10 5 0 7 5 4 10 -3 6 -8 10 -11 10 -2 0
-4 -4 -4 -10z"/>
<path d="M882 2360 l-24 -19 27 -25 c15 -14 33 -22 42 -19 11 4 7 10 -16 19
-17 7 -31 15 -31 16 0 9 101 -2 120 -12 12 -6 24 -10 26 -8 2 3 -16 15 -41 27
-25 12 -45 27 -45 32 0 16 -34 9 -58 -11z m48 0 c0 -13 -28 -25 -38 -16 -3 4
0 11 8 16 20 13 30 12 30 0z"/>
<path d="M965 2370 c3 -5 10 -10 16 -10 5 0 9 5 9 10 0 6 -7 10 -16 10 -8 0
-12 -4 -9 -10z"/>
<path d="M2115 2370 c-3 -5 -1 -10 4 -10 6 0 11 5 11 10 0 6 -2 10 -4 10 -3 0
-8 -4 -11 -10z"/>
<path d="M1012 2361 c-10 -6 -7 -12 12 -25 28 -18 34 -10 14 17 -8 10 -18 14
-26 8z"/>
<path d="M2287 2348 c-8 -5 -6 -9 7 -14 11 -4 24 -1 33 9 15 15 14 16 -6 14
-12 -1 -27 -5 -34 -9z"/>
<path d="M1306 2306 c-4 -18 -2 -44 3 -57 5 -13 10 -19 10 -12 1 6 4 19 8 29
4 12 3 15 -5 10 -15 -9 -15 4 -2 38 5 14 6 26 1 26 -5 0 -12 -15 -15 -34z"/>
<path d="M2250 2320 c0 -5 6 -10 13 -13 8 -3 7 -9 -6 -18 -16 -13 -15 -14 10
-14 28 0 81 30 71 40 -2 3 -15 -4 -28 -15 -29 -25 -33 -25 -25 -1 4 13 0 20
-15 24 -11 3 -20 1 -20 -3z"/>
<path d="M671 2298 c-1 -31 15 -46 32 -29 9 9 8 11 -5 6 -13 -5 -18 0 -21 22
l-4 28 -2 -27z"/>
<path d="M964 2312 c4 -7 14 -12 22 -12 8 0 14 -7 14 -16 0 -13 3 -14 13 -5
14 11 27 5 27 -11 0 -5 -4 -7 -9 -3 -5 3 -12 1 -16 -5 -3 -5 -2 -10 3 -10 5 0
14 -10 21 -22 11 -22 11 -21 6 5 -4 20 -2 27 6 22 8 -5 9 -1 4 15 -5 17 -4 21
6 15 12 -7 12 -5 1 6 -7 8 -25 14 -40 15 -15 0 -36 4 -46 9 -14 6 -17 5 -12
-3z"/>
<path d="M1240 2303 c0 -13 -6 -22 -12 -20 -9 1 -13 -14 -14 -50 -1 -29 2 -53
7 -53 5 0 9 17 10 38 1 32 2 34 8 12 7 -22 8 -19 13 20 3 25 1 52 -3 60 -6 12
-8 10 -9 -7z"/>
<path d="M1330 2304 c0 -8 5 -12 10 -9 6 4 8 11 5 16 -9 14 -15 11 -15 -7z"/>
<path d="M2156 2286 c-30 -18 -35 -24 -22 -29 10 -4 16 -1 16 7 0 14 43 31 70
27 13 -2 13 -1 0 8 -20 14 -19 14 -64 -13z"/>
<path d="M1150 2293 c0 -5 7 -17 15 -27 17 -23 20 -56 4 -56 -6 0 -7 -5 -2
-12 4 -7 7 -22 5 -33 -2 -18 -1 -19 6 -2 13 30 29 0 31 -56 2 -41 8 -54 38
-85 24 -23 34 -29 29 -17 -5 11 -15 39 -23 63 -8 23 -19 42 -25 42 -6 0 -8 7
-4 15 3 8 -5 27 -18 42 -20 24 -23 34 -16 75 3 26 3 45 -2 42 -4 -3 -8 0 -8 5
0 6 -7 11 -15 11 -8 0 -15 -3 -15 -7z m90 -231 c0 -7 -4 -10 -10 -7 -5 3 -10
16 -10 28 0 18 2 19 10 7 5 -8 10 -21 10 -28z"/>
<path d="M1274 2289 c-4 -7 -8 -30 -9 -53 -2 -22 -1 -33 2 -23 2 9 9 15 14 12
5 -4 9 12 9 34 0 42 -4 49 -16 30z"/>
<path d="M965 2270 c5 -17 4 -20 -5 -15 -9 6 -11 4 -5 -5 6 -9 2 -10 -16 -5
-13 4 -25 12 -27 16 -5 13 -30 11 -38 -3 -4 -7 -3 -8 4 -4 7 4 17 4 24 0 8 -5
6 -10 -8 -16 -15 -7 -14 -8 6 -4 14 3 32 -2 44 -12 12 -11 16 -12 11 -3 -6 11
-4 13 8 8 11 -4 14 -2 10 9 -3 7 -1 14 5 14 8 0 14 -12 27 -55 2 -5 10 -23 19
-40 11 -21 16 -24 16 -12 0 10 4 15 10 12 6 -4 7 1 3 11 -5 13 -3 15 8 9 8 -5
11 -4 6 0 -14 16 -36 14 -30 -3 4 -14 3 -15 -5 -2 -6 8 -9 18 -6 22 5 8 -22
53 -49 81 -19 19 -19 18 -12 -3z"/>
<path d="M713 2254 c-12 -25 -12 -26 6 -10 17 16 22 16 55 2 25 -10 44 -12 59
-6 20 8 19 9 -11 9 -19 1 -31 5 -27 11 3 6 -5 10 -19 10 -13 0 -30 2 -38 5 -7
3 -18 -6 -25 -21z"/>
<path d="M1096 2241 c8 -25 18 -50 22 -55 3 -6 7 -17 9 -25 1 -7 6 -18 12 -24
13 -13 0 38 -19 72 -6 13 -9 25 -7 28 3 3 15 -12 26 -34 20 -35 21 -36 15 -8
-7 31 -33 69 -42 60 -3 -2 -11 3 -18 13 -9 12 -9 4 2 -27z"/>
<path d="M1397 2251 c-3 -16 -9 -42 -13 -57 -4 -16 -4 -26 0 -22 4 3 11 21 16
40 4 18 11 41 15 51 4 9 3 17 -3 17 -5 0 -12 -13 -15 -29z"/>
<path d="M2185 2265 l-30 -14 33 -1 c22 0 32 5 32 15 0 8 -1 15 -2 14 -2 0
-16 -7 -33 -14z"/>
<path d="M2340 2270 c0 -5 -10 -10 -22 -10 -20 0 -21 -1 -3 -20 20 -22 44 -28
26 -6 -9 11 -7 15 10 19 12 3 18 10 14 16 -8 14 -25 14 -25 1z"/>
<path d="M1334 2231 c-4 -22 -10 -41 -15 -41 -5 0 -9 -4 -9 -10 0 -5 6 -7 14
-4 15 6 33 81 22 91 -3 3 -8 -13 -12 -36z"/>
<path d="M1511 2245 c-1 -12 -6 -26 -13 -33 -9 -9 -9 -12 4 -12 11 0 14 -7 11
-27 -4 -22 -2 -25 6 -13 13 18 13 57 1 85 -9 20 -9 20 -9 0z"/>
<path d="M1745 2250 c3 -5 8 -10 11 -10 2 0 4 5 4 10 0 6 -5 10 -11 10 -5 0
-7 -4 -4 -10z"/>
<path d="M1361 2224 c0 -11 3 -14 6 -6 3 7 2 16 -1 19 -3 4 -6 -2 -5 -13z"/>
<path d="M1420 2230 c0 -13 18 -22 24 -11 3 5 -1 11 -9 15 -8 3 -15 1 -15 -4z"/>
<path d="M1827 2214 c-9 -50 -7 -108 3 -124 9 -13 10 -13 11 0 1 8 0 27 -1 41
-1 29 30 45 49 26 8 -8 11 -3 11 19 0 20 -3 25 -9 15 -7 -11 -9 -11 -14 0 -4
11 -9 9 -22 -6 -16 -20 -16 -19 -12 7 6 37 -9 58 -16 22z"/>
<path d="M2280 2220 c32 -25 44 -25 23 0 -10 11 -24 20 -33 20 -10 0 -7 -7 10
-20z"/>
<path d="M770 2220 c-8 -5 -26 -10 -40 -11 -17 -1 -20 -3 -7 -6 9 -2 15 -8 12
-13 -3 -5 8 -5 24 1 16 6 32 17 35 25 6 16 -3 18 -24 4z"/>
<path d="M851 2222 c-1 -7 -7 -12 -13 -11 -24 3 -38 -1 -38 -10 0 -6 12 -6 30
-1 18 5 32 5 35 -1 4 -5 3 -9 0 -9 -3 0 4 -18 16 -40 13 -22 28 -39 35 -36 7
3 15 2 18 -2 12 -11 37 -11 33 1 -2 7 -12 11 -22 9 -9 -2 -15 0 -12 5 3 5 -4
20 -15 33 -12 16 -18 19 -14 8 3 -10 2 -20 -3 -22 -4 -3 -8 0 -8 7 0 7 -4 20
-8 30 -11 27 12 20 42 -13 30 -34 46 -32 17 2 -18 22 -18 22 8 -1 16 -14 24
-29 21 -39 -4 -9 -2 -13 4 -9 7 5 9 0 6 -13 -3 -11 -1 -20 3 -20 5 0 10 10 10
23 1 12 4 29 5 37 2 8 -1 14 -7 13 -6 -1 -22 9 -34 22 -17 18 -34 25 -61 25
-20 0 -40 6 -42 13 -4 9 -6 9 -6 -1z m73 -93 c-3 -5 -10 -7 -15 -3 -5 3 -7 10
-3 15 3 5 10 7 15 3 5 -3 7 -10 3 -15z"/>
<path d="M1786 2220 c4 -8 11 -30 15 -50 7 -35 7 -35 8 -4 0 16 -6 39 -15 50
-8 10 -12 12 -8 4z"/>
<path d="M2150 2220 c0 -5 17 -12 38 -15 20 -3 45 -8 55 -10 9 -2 17 1 17 6 0
9 -28 13 -62 10 -10 -1 -18 3 -18 8 0 6 -7 11 -15 11 -8 0 -15 -4 -15 -10z"/>
<path d="M1710 2209 c0 -5 5 -7 10 -4 6 3 10 8 10 11 0 2 -4 4 -10 4 -5 0 -10
-5 -10 -11z"/>
<path d="M1746 2200 c3 -14 11 -32 16 -40 6 -10 7 -7 2 10 -3 14 -11 32 -16
40 -6 10 -7 7 -2 -10z"/>
<path d="M2045 2209 c-11 -17 1 -21 15 -4 8 9 8 15 2 15 -6 0 -14 -5 -17 -11z"/>
<path d="M2127 2213 c-4 -3 -17 -7 -29 -8 -40 -3 -29 -21 12 -20 22 0 40 3 40
8 0 4 -5 7 -11 7 -5 0 -7 5 -4 10 7 11 2 13 -8 3z"/>
<path d="M1276 2194 c-3 -9 -4 -19 -1 -22 3 -3 5 1 6 9 0 8 4 6 9 -6 6 -13 9
-15 9 -5 0 8 -3 21 -8 28 -6 11 -10 10 -15 -4z"/>
<path d="M1398 2159 c-25 -77 -35 -158 -18 -142 7 6 14 32 16 58 1 26 9 54 17
63 8 10 18 28 21 42 5 17 4 21 -2 11 -8 -11 -11 -10 -14 5 -2 10 -10 -5 -20
-37z"/>
<path d="M1465 2201 c3 -5 1 -12 -4 -16 -6 -3 -8 -12 -5 -20 3 -7 1 -23 -6
-34 -6 -12 -7 -21 -1 -21 8 0 23 24 25 42 1 3 4 9 7 13 9 9 -1 45 -13 45 -5 0
-7 -4 -3 -9z"/>
<path d="M1618 2190 c-10 -9 -18 -26 -18 -38 0 -22 -17 -39 -28 -27 -3 3 0 10
8 15 12 8 12 10 1 10 -8 0 -11 7 -8 20 3 11 1 18 -3 15 -5 -3 -11 1 -13 7 -3
7 -6 3 -6 -10 -1 -13 -5 -21 -10 -18 -7 5 -23 -66 -25 -113 -1 -8 -7 -16 -14
-19 -6 -2 -12 -8 -12 -13 0 -6 5 -7 10 -4 6 3 10 1 10 -4 0 -6 -6 -11 -14 -11
-8 0 -17 -7 -20 -16 -5 -14 -4 -15 9 -4 8 7 15 9 15 4 0 -4 6 1 14 11 8 11 12
24 9 29 -4 5 -1 6 6 2 8 -5 10 1 6 24 -6 36 11 100 26 100 6 0 7 -4 4 -10 -3
-5 -1 -19 6 -31 8 -15 8 -19 0 -15 -10 7 -15 -10 -13 -44 1 -16 -57 -112 -70
-118 -5 -2 -6 -8 -2 -13 7 -11 -21 -41 -30 -31 -4 3 -4 -2 0 -11 6 -17 8 -16
30 4 13 12 24 27 24 32 0 5 6 15 14 21 7 6 26 49 41 96 16 47 37 93 48 103 10
9 14 17 8 17 -6 0 -8 7 -5 15 9 22 24 18 24 -5 0 -15 7 -20 25 -20 14 0 25 -5
25 -11 0 -5 -5 -7 -11 -3 -8 4 -7 0 1 -15 22 -42 6 -201 -21 -201 -5 0 -9 5
-9 12 0 21 -13 -2 -16 -28 -3 -25 -2 -25 11 -8 8 11 15 14 15 7 0 -6 -8 -19
-17 -29 -9 -9 -18 -25 -18 -36 -3 -33 16 -14 37 37 11 28 24 58 29 67 5 10 9
30 9 44 0 21 4 25 20 21 15 -4 20 0 20 16 0 18 -2 19 -10 7 -9 -13 -10 -13
-10 0 0 8 4 21 9 29 10 15 -6 74 -18 66 -4 -2 -6 -19 -3 -37 2 -18 1 -30 -3
-26 -3 3 -7 27 -7 52 0 25 -4 46 -9 46 -6 0 -7 5 -4 10 3 6 1 11 -4 11 -6 1
-16 2 -22 3 -7 0 -15 8 -18 17 -5 15 -8 14 -23 -1z"/>
<path d="M1687 2196 c-4 -10 -3 -15 3 -11 5 3 13 -7 16 -22 7 -25 8 -25 15 -8
11 29 10 35 -5 35 -8 0 -16 5 -18 12 -3 7 -7 5 -11 -6z"/>
<path d="M1770 2186 c0 -8 5 -18 10 -21 6 -3 10 1 10 9 0 8 -4 18 -10 21 -5 3
-10 -1 -10 -9z"/>
<path d="M820 2182 c0 -5 -12 -7 -26 -4 -19 3 -25 1 -20 -7 4 -6 12 -9 17 -6
5 4 9 2 9 -4 0 -5 -3 -11 -7 -14 -5 -2 -3 -2 4 -1 7 2 15 -1 18 -6 4 -6 11
-10 18 -10 8 0 8 3 -1 12 -18 18 -14 31 8 25 11 -3 20 -3 20 -1 0 2 -9 8 -20
14 -11 6 -20 7 -20 2z"/>
<path d="M1082 2180 c0 -8 4 -26 8 -40 6 -20 8 -21 8 -5 0 11 -3 29 -8 40 -5
12 -8 14 -8 5z"/>
<path d="M1255 2168 c3 -16 1 -28 -4 -28 -5 0 -1 -24 9 -52 11 -29 23 -52 27
-51 4 0 9 -19 9 -44 2 -49 29 -94 29 -48 0 14 -3 25 -7 25 -5 0 -7 3 -6 8 1 4
-1 27 -5 52 -5 29 -11 40 -16 31 -6 -9 -10 -7 -14 8 -3 12 -1 21 5 21 5 0 7 4
4 9 -4 5 0 11 6 14 7 2 10 8 5 12 -4 5 -14 0 -23 -11 -15 -18 -15 -18 -10 8 3
14 1 37 -4 50 -10 22 -10 22 -5 -4z"/>
<path d="M1355 2173 c-9 -22 -17 -238 -9 -230 3 3 8 50 10 104 3 54 7 108 9
121 6 26 0 29 -10 5z"/>
<path d="M2030 2148 c-11 -18 -20 -37 -20 -43 0 -5 -5 -3 -10 5 -6 9 -10 10
-10 3 0 -6 5 -15 10 -18 7 -4 7 -12 0 -25 -20 -37 46 -26 79 14 7 9 18 13 24
9 6 -4 7 -1 2 7 -4 7 -2 16 6 21 10 6 11 9 2 9 -7 0 -31 -18 -53 -40 -22 -22
-42 -40 -45 -40 -12 0 -3 17 22 45 67 76 69 79 51 72 -10 -4 -18 -2 -18 3 0
21 -21 9 -40 -22z m40 6 c0 -3 -14 -19 -32 -37 -26 -27 -29 -28 -16 -7 8 14
18 31 22 38 7 12 26 17 26 6z"/>
<path d="M2120 2170 c-8 -6 -10 -10 -5 -10 6 0 3 -5 -5 -10 -8 -5 -10 -10 -4
-10 13 0 39 28 33 35 -3 2 -11 0 -19 -5z"/>
<path d="M2150 2165 c0 -10 10 -15 26 -15 22 0 25 -4 21 -21 -3 -12 -3 -18 0
-15 3 3 12 -2 19 -12 7 -9 23 -17 37 -17 24 -1 24 0 10 22 -19 28 -38 31 -23
3 7 -14 7 -20 0 -20 -5 0 -10 7 -10 16 0 16 -55 74 -71 74 -5 0 -9 -7 -9 -15z"/>
<path d="M1326 2154 c-4 -9 -4 -19 -1 -22 2 -3 7 3 11 12 4 9 4 19 1 22 -2 3
-7 -3 -11 -12z"/>
<path d="M2300 2164 c0 -3 7 -12 15 -20 13 -13 15 -13 15 -1 0 8 -7 17 -15 21
-8 3 -15 3 -15 0z"/>
<path d="M2252 2140 c7 -11 15 -20 18 -21 3 0 13 -2 22 -4 25 -5 11 20 -18 34
-34 15 -36 14 -22 -9z"/>
<path d="M1734 2138 c1 -7 7 -22 13 -32 6 -12 8 -29 3 -41 -5 -13 -4 -28 2
-36 8 -11 9 -11 4 3 -3 10 2 24 11 33 14 14 14 17 -1 34 -9 10 -16 23 -16 29
0 6 -4 13 -9 16 -5 4 -8 0 -7 -6z"/>
<path d="M1168 2133 c7 -3 16 -2 19 1 4 3 -2 6 -13 5 -11 0 -14 -3 -6 -6z"/>
<path d="M1419 2123 c-13 -16 -12 -17 4 -4 9 7 17 15 17 17 0 8 -8 3 -21 -13z"/>
<path d="M1466 2108 c-18 -19 -36 -28 -47 -25 -11 3 -19 1 -19 -4 0 -5 7 -9
17 -9 14 0 14 -2 -2 -20 -10 -11 -14 -20 -9 -20 5 0 15 10 23 21 10 18 15 19
22 8 6 -10 12 -4 24 24 9 21 20 35 25 32 6 -3 10 -2 10 4 0 21 -16 17 -44 -11z
m4 -22 c0 -3 -4 -8 -10 -11 -5 -3 -10 -1 -10 4 0 6 5 11 10 11 6 0 10 -2 10
-4z"/>
<path d="M1760 2130 c0 -5 5 -10 11 -10 5 0 7 5 4 10 -3 6 -8 10 -11 10 -2 0
-4 -4 -4 -10z"/>
<path d="M1864 2109 c1 -28 16 -54 16 -28 0 8 3 23 6 35 4 14 1 21 -9 21 -9 0
-14 -10 -13 -28z"/>
<path d="M794 2119 c-3 -5 -1 -9 3 -9 5 0 17 -14 27 -31 10 -17 21 -28 24 -25
3 4 0 12 -6 18 -14 14 -16 28 -4 28 14 0 44 -68 37 -82 -7 -10 -5 -11 6 0 11
10 10 19 -11 56 -23 42 -63 66 -76 45z"/>
<path d="M1045 2119 c-4 -6 -5 -12 -2 -15 2 -3 7 2 10 11 7 17 1 20 -8 4z"/>
<path d="M1628 2113 c10 -20 5 -43 -9 -43 -4 0 -6 7 -3 15 4 8 1 15 -6 15 -8
0 -10 -8 -5 -27 5 -16 7 -36 7 -45 -1 -10 -3 -47 -4 -82 -1 -36 -5 -63 -10
-60 -4 3 -5 -2 -2 -10 12 -32 24 -3 24 56 0 34 3 58 7 54 13 -13 28 45 25 95
-3 34 -8 49 -18 49 -11 0 -12 -5 -6 -17z m3 -96 c-10 -9 -11 -8 -5 6 3 10 9
15 12 12 3 -3 0 -11 -7 -18z"/>
<path d="M1790 2115 c0 -8 2 -15 4 -15 2 0 6 7 10 15 3 8 1 15 -4 15 -6 0 -10
-7 -10 -15z"/>
<path d="M2162 2116 c7 -8 15 -12 17 -11 5 6 -10 25 -20 25 -5 0 -4 -6 3 -14z"/>
<path d="M1321 2104 c0 -11 3 -14 6 -6 3 7 2 16 -1 19 -3 4 -6 -2 -5 -13z"/>
<path d="M1105 2085 c2 -33 10 -39 32 -25 16 10 16 11 1 6 -14 -4 -18 0 -18
19 0 14 -4 25 -8 25 -4 0 -7 -11 -7 -25z"/>
<path d="M1160 2095 c0 -8 4 -15 10 -15 5 0 7 7 4 15 -4 8 -8 15 -10 15 -2 0
-4 -7 -4 -15z"/>
<path d="M1908 2094 c-10 -10 4 -89 19 -104 13 -13 14 -13 11 0 -2 8 -7 18
-12 21 -4 4 -3 17 4 29 7 12 8 20 2 16 -5 -3 -13 2 -16 11 -4 9 -1 20 6 25 8
4 8 8 2 8 -6 0 -13 -3 -16 -6z"/>
<path d="M2128 2084 c-16 -8 -28 -16 -28 -17 0 -9 84 1 87 10 3 7 -4 9 -18 6
-15 -4 -20 -3 -15 5 9 15 7 15 -26 -4z"/>
<path d="M1800 2079 c0 -5 5 -7 10 -4 6 3 10 8 10 11 0 2 -4 4 -10 4 -5 0 -10
-5 -10 -11z"/>
<path d="M1320 2056 c0 -31 6 -34 13 -6 3 11 1 23 -4 26 -5 3 -9 -6 -9 -20z"/>
<path d="M970 2060 c-8 -5 -10 -10 -5 -10 6 0 17 5 25 10 8 5 11 10 5 10 -5 0
-17 -5 -25 -10z"/>
<path d="M1021 2058 c-1 -26 17 -31 29 -8 7 13 7 20 0 20 -5 0 -10 -8 -11 -17
0 -15 -2 -15 -9 2 -7 16 -9 17 -9 3z"/>
<path d="M1086 2040 c11 -24 23 -36 37 -37 12 0 16 1 9 4 -6 3 -10 9 -6 14 3
5 -1 9 -9 9 -8 0 -22 10 -31 23 -15 20 -15 19 0 -13z"/>
<path d="M1957 2050 c-3 -11 -1 -20 4 -20 5 0 9 9 9 20 0 11 -2 20 -4 20 -2 0
-6 -9 -9 -20z"/>
<path d="M1845 2041 c3 -11 -1 -26 -10 -35 -9 -9 -13 -21 -9 -27 5 -8 3 -9 -6
-4 -10 6 -12 3 -7 -14 4 -18 2 -21 -11 -16 -14 5 -15 4 -4 -6 6 -7 12 -21 12
-31 0 -12 7 -18 21 -18 18 0 19 -2 9 -15 -10 -12 -10 -15 2 -15 10 0 18 14 22
38 17 103 18 107 7 92 -6 -8 -11 -24 -11 -36 0 -11 -9 -29 -20 -39 -16 -14
-20 -15 -20 -4 0 8 4 19 9 25 7 7 41 107 41 121 0 2 -7 3 -16 3 -11 0 -13 -6
-9 -19z"/>
<path d="M1881 2050 c0 -8 4 -24 9 -35 9 -20 9 -20 9 0 0 11 -4 27 -9 35 -9
13 -10 13 -9 0z"/>
<path d="M2116 2045 c-3 -8 -12 -12 -20 -9 -8 3 -19 -2 -24 -13 -9 -15 -7 -19
10 -20 14 -1 18 3 14 13 -3 9 -2 12 5 9 11 -7 39 12 39 26 0 15 -17 10 -24 -6z"/>
<path d="M2185 2051 c-6 -11 9 -23 19 -14 9 9 7 23 -3 23 -6 0 -12 -4 -16 -9z"/>
<path d="M2225 2050 c3 -5 8 -10 11 -10 2 0 4 5 4 10 0 6 -5 10 -11 10 -5 0
-7 -4 -4 -10z"/>
<path d="M2050 2042 c0 -6 -10 -12 -22 -14 -14 -2 -19 -6 -12 -10 13 -9 52 17
41 28 -4 4 -7 2 -7 -4z"/>
<path d="M962 2016 c14 -32 31 -38 55 -21 17 13 16 14 -9 9 -20 -3 -28 1 -33
16 -3 11 -10 20 -15 20 -5 0 -5 -11 2 -24z"/>
<path d="M1195 2020 c4 -12 2 -20 -5 -20 -7 0 -9 -7 -6 -16 3 -8 2 -12 -4 -9
-6 3 -7 -1 -4 -10 6 -14 8 -14 25 1 20 18 25 29 9 19 -5 -3 -10 -2 -10 4 0 15
14 21 29 11 8 -4 10 -13 6 -20 -5 -9 -4 -11 3 -6 8 5 12 0 12 -13 0 -12 5 -21
10 -21 6 0 10 -5 10 -11 0 -6 -7 -8 -16 -5 -14 5 -15 4 -4 -9 11 -14 14 -13
25 2 10 14 10 20 -1 31 -8 7 -14 17 -14 22 0 13 -50 70 -62 70 -5 0 -6 -9 -3
-20z"/>
<path d="M1447 2033 c-10 -9 -8 -51 2 -57 5 -4 7 4 3 16 -3 13 -1 19 5 15 7
-5 9 0 6 13 -6 22 -7 23 -16 13z"/>
<path d="M1576 2023 c-6 -14 -5 -15 5 -6 7 7 10 15 7 18 -3 3 -9 -2 -12 -12z"/>
<path d="M2150 2030 c0 -5 8 -10 18 -11 14 0 14 -2 -3 -9 -27 -12 -37 -12 -30
0 3 5 0 7 -9 4 -20 -8 -10 -30 14 -30 10 0 17 3 14 7 -6 10 39 17 75 11 17 -2
31 -9 31 -14 0 -5 -6 -6 -12 -2 -10 5 -10 4 -1 -6 19 -21 28 -3 13 24 -16 30
-38 40 -55 26 -9 -8 -15 -8 -20 0 -8 13 -35 13 -35 0z"/>
<path d="M1160 2019 c0 -5 5 -7 10 -4 6 3 10 8 10 11 0 2 -4 4 -10 4 -5 0 -10
-5 -10 -11z"/>
<path d="M1801 2014 c0 -11 3 -14 6 -6 3 7 2 16 -1 19 -3 4 -6 -2 -5 -13z"/>
<path d="M1070 2010 c0 -5 5 -10 11 -10 5 0 7 5 4 10 -3 6 -8 10 -11 10 -2 0
-4 -4 -4 -10z"/>
<path d="M1386 2001 c-18 -19 -21 -41 -7 -41 5 0 13 9 16 20 4 11 11 18 16 15
5 -4 9 -2 9 4 0 19 -17 20 -34 2z"/>
<path d="M1760 1982 c0 -18 -5 -32 -11 -32 -6 0 -9 6 -6 13 3 7 -3 13 -13 14
-13 1 -16 -4 -13 -18 3 -10 -2 -34 -10 -51 -9 -18 -18 -46 -22 -63 l-6 -30 15
25 c8 14 15 35 16 48 0 12 5 22 10 22 6 0 10 7 10 15 0 8 5 15 11 15 7 0 9
-10 5 -27 -5 -21 -4 -24 3 -13 13 19 26 99 17 107 -3 4 -6 -8 -6 -25z"/>
<path d="M881 1986 c-9 -10 -9 -16 -1 -21 17 -10 37 12 24 25 -8 8 -15 6 -23
-4z"/>
<path d="M1564 1973 c-4 -15 -23 -47 -42 -72 -21 -28 -30 -47 -22 -49 7 -3 1
-15 -16 -33 -15 -16 -24 -29 -20 -29 5 0 1 -12 -9 -26 -9 -15 -12 -23 -6 -20
16 10 13 -17 -4 -40 -13 -17 -14 -17 -15 -1 0 18 -30 25 -30 6 0 -5 4 -8 8 -5
4 2 8 -11 8 -30 0 -19 -4 -34 -8 -34 -4 0 -8 -7 -8 -15 0 -19 20 -19 45 -1 11
8 25 12 32 9 7 -3 13 0 13 6 0 17 -41 13 -64 -6 -19 -16 -19 -16 -7 -1 7 9 9
23 5 29 -4 8 -3 9 5 5 6 -4 14 -1 17 8 3 8 11 13 19 10 9 -4 11 3 9 23 l-4 28
10 -25 c9 -19 13 -21 20 -11 5 9 3 19 -5 28 -13 12 -11 43 2 43 3 0 3 -7 -1
-15 -3 -8 -1 -15 4 -15 11 0 13 23 3 33 -3 4 -12 2 -20 -4 -10 -9 -13 -8 -13
1 0 6 9 14 20 17 22 6 34 34 25 62 -3 11 -1 22 4 26 7 3 8 0 5 -9 -3 -9 -2
-16 4 -16 5 0 12 9 15 20 3 11 1 18 -4 14 -17 -10 -8 11 21 50 30 40 38 66 20
66 -5 0 -13 -12 -16 -27z"/>
<path d="M1985 1989 c-4 -6 -5 -12 -2 -15 2 -3 7 2 10 11 7 17 1 20 -8 4z"/>
<path d="M1124 1963 c9 -18 18 -33 20 -33 9 0 -8 41 -22 52 -13 11 -12 8 2
-19z"/>
<path d="M1651 1983 c0 -6 -4 -20 -7 -30 -5 -14 -4 -15 5 -7 7 7 11 20 8 30
-3 11 -5 14 -6 7z"/>
<path d="M1000 1968 c0 -4 5 -8 10 -8 6 0 10 -7 10 -15 0 -8 3 -15 8 -15 4 0
7 11 7 24 0 17 -5 24 -17 23 -10 -1 -18 -5 -18 -9z"/>
<path d="M1891 1964 c0 -11 3 -14 6 -6 3 7 2 16 -1 19 -3 4 -6 -2 -5 -13z"/>
<path d="M1940 1968 c-12 -8 -12 -9 3 -4 19 6 23 -9 5 -20 -6 -4 -17 1 -25 11
-7 11 -13 14 -13 9 0 -6 5 -15 12 -22 14 -14 -7 -43 -27 -36 -7 3 -16 1 -20
-5 -3 -7 0 -8 9 -5 9 3 16 1 16 -5 0 -6 -4 -11 -10 -11 -5 0 -10 -6 -10 -12 0
-13 89 81 90 94 0 13 -16 17 -30 6z"/>
<path d="M2183 1944 c-20 -22 -26 -34 -17 -34 12 0 13 -4 3 -22 -10 -20 -7
-19 19 5 16 16 34 29 39 29 4 0 7 3 6 8 -1 4 10 5 25 3 l27 -5 -30 26 c-16 14
-32 25 -35 25 -3 0 -19 -16 -37 -35z"/>
<path d="M815 1960 c-9 -15 3 -29 25 -27 10 1 16 5 13 10 -3 4 -12 6 -20 3
-11 -4 -13 -2 -9 9 6 17 0 20 -9 5z"/>
<path d="M1435 1960 c3 -5 -1 -10 -7 -13 -7 -2 -10 -8 -6 -12 4 -4 16 0 28 8
21 14 21 14 0 20 -11 3 -18 1 -15 -3z"/>
<path d="M2100 1959 c0 -5 5 -7 10 -4 6 3 10 8 10 11 0 2 -4 4 -10 4 -5 0 -10
-5 -10 -11z"/>
<path d="M2057 1946 c-3 -8 0 -17 7 -19 10 -4 12 1 9 14 -6 23 -9 24 -16 5z"/>
<path d="M903 1938 c2 -7 11 -12 21 -10 9 2 16 -3 16 -10 0 -9 3 -9 10 2 7 12
12 12 22 2 9 -9 9 -12 0 -12 -7 0 -12 -7 -12 -15 0 -10 11 -15 35 -15 46 0 45
20 -3 42 -55 25 -95 32 -89 16z m107 -38 c12 -8 9 -10 -13 -10 -16 0 -26 4
-22 10 8 12 16 12 35 0z"/>
<path d="M1200 1940 c0 -5 5 -10 10 -10 6 0 10 5 10 10 0 6 -4 10 -10 10 -5 0
-10 -4 -10 -10z"/>
<path d="M1360 1935 c0 -8 2 -15 4 -15 2 0 6 7 10 15 3 8 1 15 -4 15 -6 0 -10
-7 -10 -15z"/>
<path d="M1988 1945 c-4 -4 -4 -14 -1 -23 4 -9 2 -13 -4 -9 -6 4 -13 -2 -16
-13 -3 -13 -26 -30 -61 -45 -44 -20 -56 -29 -56 -47 0 -18 2 -20 9 -8 6 8 7
18 5 22 -3 4 4 8 16 8 12 0 37 11 57 25 20 13 40 22 45 19 4 -3 5 2 2 11 -5
11 0 18 15 22 11 3 21 10 21 15 0 5 -4 7 -9 3 -5 -3 -11 2 -13 11 -2 9 -6 13
-10 9z"/>
<path d="M1157 1926 c-4 -10 -1 -13 9 -9 9 3 14 -1 14 -13 0 -9 3 -15 6 -11 8
7 -5 47 -16 47 -4 0 -10 -7 -13 -14z"/>
<path d="M1890 1930 c0 -5 5 -10 10 -10 6 0 10 5 10 10 0 6 -4 10 -10 10 -5 0
-10 -4 -10 -10z"/>
<path d="M1445 1920 c-4 -6 -11 -7 -17 -4 -7 4 -8 2 -4 -5 6 -9 11 -9 22 0 14
11 18 19 10 19 -3 0 -8 -5 -11 -10z"/>
<path d="M1567 1903 c-6 -34 -2 -41 11 -16 6 11 7 25 3 32 -6 9 -10 4 -14 -16z"/>
<path d="M1100 1916 c0 -3 9 -10 20 -16 11 -6 20 -8 20 -6 0 3 -9 10 -20 16
-11 6 -20 8 -20 6z"/>
<path d="M1386 1907 c3 -10 9 -15 12 -12 3 3 0 11 -7 18 -10 9 -11 8 -5 -6z"/>
<path d="M591 1901 c-10 -6 -9 -10 5 -15 20 -8 25 -4 16 11 -4 7 -13 9 -21 4z"/>
<path d="M1073 1903 c9 -2 17 -9 17 -14 0 -5 5 -9 11 -9 8 0 8 5 -1 15 -7 8
-20 14 -29 14 -13 -1 -13 -2 2 -6z"/>
<path d="M1313 1895 c-3 -9 -3 -19 1 -22 3 -4 6 1 6 11 0 9 5 14 10 11 6 -3
10 -1 10 4 0 17 -20 13 -27 -4z"/>
<path d="M1351 1893 c-1 -18 4 -23 22 -22 15 1 17 3 5 6 -9 2 -19 12 -21 21
-3 12 -5 10 -6 -5z"/>
<path d="M1765 1889 c-4 -5 -4 -22 -1 -35 8 -29 -3 -144 -13 -144 -3 0 -12 13
-19 30 -11 25 -11 33 1 50 7 11 17 17 20 14 4 -4 2 7 -3 25 -5 17 -9 34 -9 37
1 3 -3 9 -7 12 -4 4 -4 -10 -1 -30 3 -23 1 -40 -5 -44 -7 -5 -9 -2 -5 8 3 9 3
19 -1 22 -3 4 -12 -12 -19 -36 -10 -36 -10 -44 3 -51 8 -4 11 -13 8 -19 -5 -7
-2 -8 5 -3 10 5 11 -4 5 -40 -5 -39 -4 -47 7 -41 8 4 3 -2 -11 -14 -14 -12
-19 -19 -12 -15 7 4 12 0 12 -9 0 -9 -5 -16 -11 -16 -5 0 -7 -5 -4 -10 5 -8
12 -7 23 2 15 12 16 11 3 -5 -16 -20 -11 -30 11 -22 36 14 50 109 15 102 -15
-3 -10 31 8 49 7 8 11 24 8 36 -4 19 -3 20 7 8 9 -12 10 -8 5 19 -6 26 -4 32
5 26 9 -5 11 -4 6 4 -8 13 -18 57 -20 84 0 20 -2 21 -11 6z m-10 -279 c-3 -4
0 -11 5 -13 6 -3 5 -4 -2 -3 -7 1 -15 11 -16 21 -3 11 0 15 7 10 6 -3 9 -10 6
-15z"/>
<path d="M2015 1890 c-19 -8 -19 -9 3 -9 12 -1 22 4 22 9 0 6 -1 10 -2 9 -2 0
-12 -4 -23 -9z"/>
<path d="M780 1876 c7 -7 14 -6 21 1 9 9 7 12 -9 10 -14 -1 -18 -5 -12 -11z"/>
<path d="M843 1865 c16 -15 40 -25 58 -25 29 0 38 13 17 26 -7 5 -8 3 -3 -6
11 -18 -51 -5 -71 15 -9 8 -18 15 -22 15 -4 0 6 -12 21 -25z"/>
<path d="M1281 1874 c0 -11 3 -14 6 -6 3 7 2 16 -1 19 -3 4 -6 -2 -5 -13z"/>
<path d="M1405 1880 c-3 -6 1 -7 9 -4 18 7 21 14 7 14 -6 0 -13 -4 -16 -10z"/>
<path d="M2212 1867 c-32 -34 -29 -48 8 -35 17 5 33 15 37 21 4 6 0 8 -10 4
-45 -18 -51 -18 -27 1 14 12 22 23 19 26 -3 3 -15 -4 -27 -17z"/>
<path d="M2115 1870 c-3 -5 -2 -10 4 -10 5 0 13 5 16 10 3 6 2 10 -4 10 -5 0
-13 -4 -16 -10z"/>
<path d="M1335 1848 c4 -14 2 -35 -4 -46 -6 -12 -7 -23 -2 -26 10 -6 26 40 22
64 -2 8 -7 20 -13 25 -6 7 -7 1 -3 -17z"/>
<path d="M1437 1864 c-14 -15 -7 -33 11 -27 14 6 15 4 5 -9 -7 -8 -10 -18 -6
-21 3 -4 1 -7 -5 -7 -7 0 -12 -7 -12 -15 0 -9 -11 -21 -25 -27 -17 -8 -22 -14
-14 -19 17 -10 48 22 71 73 10 23 16 39 12 35 -4 -4 -12 0 -18 9 -6 8 -15 12
-19 8z"/>
<path d="M2000 1860 c0 -6 7 -10 15 -10 8 0 15 2 15 4 0 2 -7 6 -15 10 -8 3
-15 1 -15 -4z"/>
<path d="M755 1850 c-4 -6 1 -7 11 -3 12 4 15 3 10 -5 -5 -8 -2 -10 8 -6 9 3
13 10 10 15 -7 12 -31 11 -39 -1z"/>
<path d="M1083 1853 c9 -2 23 -2 30 0 6 3 -1 5 -18 5 -16 0 -22 -2 -12 -5z"/>
<path d="M1133 1854 c4 -8 -8 -13 -36 -17 -23 -3 -43 -2 -45 4 -2 5 -8 9 -13
9 -4 0 -6 -7 -2 -16 4 -10 -1 -17 -16 -21 -11 -3 -21 -8 -22 -12 0 -3 -2 -18
-4 -34 -4 -31 42 -140 55 -132 5 3 11 1 15 -4 6 -10 -27 -7 -45 4 -6 4 -7 -1
-3 -11 5 -13 2 -15 -18 -9 -13 4 -28 11 -33 15 -11 11 -38 1 -31 -11 3 -4 12
-6 20 -2 11 4 13 1 8 -13 -6 -17 -5 -17 9 -6 13 10 22 11 37 3 11 -6 32 -11
46 -11 15 0 33 -7 42 -15 29 -29 25 -7 -7 40 -19 27 -36 43 -43 39 -7 -4 -9
-4 -5 0 4 5 -2 25 -13 44 -42 80 -11 122 91 122 59 0 102 -16 148 -55 28 -23
33 -33 30 -64 -2 -29 -9 -39 -33 -50 -16 -8 -33 -19 -37 -25 -5 -7 -8 -7 -8 2
0 10 -8 8 -27 -6 -16 -10 -36 -22 -45 -25 -27 -10 -22 -25 7 -23 14 0 28 9 31
19 7 23 21 22 29 -4 6 -17 9 -19 16 -8 6 10 8 7 7 -11 -2 -16 2 -24 10 -23 6
2 12 -7 12 -19 0 -20 1 -20 19 -4 15 13 20 14 24 4 4 -9 6 -7 6 4 1 9 6 20 13
24 8 5 9 2 5 -9 -5 -13 -1 -17 17 -17 20 0 23 4 18 22 -3 13 -1 19 6 15 6 -4
9 0 8 10 -2 9 -9 19 -16 21 -8 3 -10 0 -5 -8 6 -10 4 -12 -8 -7 -10 3 -17 2
-17 -4 0 -6 -6 -9 -12 -6 -7 2 -12 11 -10 21 2 9 0 16 -3 16 -10 0 -35 -28
-35 -39 0 -6 -4 -11 -10 -11 -15 0 -12 26 4 40 8 6 12 18 9 25 -3 9 4 16 20
20 27 7 43 51 26 72 -7 7 -6 14 1 18 5 3 10 12 9 18 0 9 -2 9 -6 0 -2 -7 -9
-13 -15 -13 -6 0 -8 7 -4 15 3 8 2 14 -2 13 -15 -5 -53 24 -49 37 4 8 0 11
-11 8 -9 -2 -26 3 -37 11 -19 13 -18 14 10 10 l30 -4 -30 10 c-19 6 -31 6 -33
0 -2 -5 -15 -2 -30 8 -14 9 -23 12 -19 6z m117 -239 c-7 -8 -17 -15 -23 -15
-6 0 -2 7 9 15 25 19 30 19 14 0z m-182 -12 c-10 -2 -26 -2 -35 0 -10 3 -2 5
17 5 19 0 27 -2 18 -5z"/>
<path d="M2047 1840 c-9 -11 -24 -20 -32 -20 -8 0 -15 -4 -15 -10 0 -5 2 -10
5 -10 12 0 54 32 59 46 7 19 4 18 -17 -6z"/>
<path d="M2076 1845 c-9 -26 -7 -32 5 -12 6 10 9 21 6 23 -2 3 -7 -2 -11 -11z"/>
<path d="M2130 1840 c-24 -19 -24 -19 -2 -13 12 3 25 10 28 15 11 18 -1 17
-26 -2z"/>
<path d="M952 1833 c-18 -9 -30 -18 -27 -21 3 -3 -2 -14 -12 -24 -9 -10 -12
-18 -7 -18 5 0 2 -5 -6 -10 -13 -9 -13 -10 0 -10 8 0 22 5 30 10 13 9 13 10 0
10 -10 0 -11 3 -4 8 7 4 13 16 16 27 2 15 10 19 31 17 15 -2 27 1 27 7 0 18
-16 20 -48 4z"/>
<path d="M1405 1829 c-6 -17 -9 -19 -16 -8 -5 8 -9 9 -9 4 0 -12 20 -35 30
-35 4 0 7 14 7 30 0 36 -3 38 -12 9z"/>
<path d="M607 1820 c-4 -14 -14 -20 -34 -21 -26 0 -27 -1 -6 -9 14 -6 21 -15
17 -23 -4 -12 3 -13 36 -7 48 9 64 20 25 17 -16 -1 -30 4 -33 11 -3 11 0 12
14 4 23 -12 64 2 64 20 0 10 -2 10 -8 1 -12 -20 -50 -12 -44 9 3 11 -1 18 -11
18 -8 0 -17 -9 -20 -20z"/>
<path d="M1972 1824 c-6 -7 -8 -15 -3 -18 4 -3 16 3 25 13 12 13 12 18 3 18
-7 0 -18 -6 -25 -13z"/>
<path d="M826 1819 c4 -7 44 0 44 7 0 2 -11 3 -24 2 -14 -1 -23 -5 -20 -9z"/>
<path d="M1921 1817 c2 -1 13 -9 24 -17 19 -14 19 -14 6 3 -7 9 -18 17 -24 17
-6 0 -8 -1 -6 -3z"/>
<path d="M2125 1812 c-2 -2 -9 -5 -17 -6 -7 -2 -20 -6 -28 -9 -8 -3 -26 -8
-40 -11 -14 -3 -2 -3 26 -1 28 2 66 10 85 18 34 14 34 14 6 13 -16 0 -30 -2
-32 -4z"/>
<path d="M808 1793 c7 -3 16 -2 19 1 4 3 -2 6 -13 5 -11 0 -14 -3 -6 -6z"/>
<path d="M1068 1793 c6 -2 18 -2 25 0 6 3 1 5 -13 5 -14 0 -19 -2 -12 -5z"/>
<path d="M1152 1780 c-6 -11 -12 -29 -12 -40 0 -15 -7 -20 -25 -20 -16 0 -25
-6 -25 -15 0 -8 5 -15 11 -15 5 0 8 4 4 9 -3 6 4 9 15 8 11 -1 20 -7 20 -14 0
-19 30 -16 36 5 3 9 10 25 15 35 11 21 1 67 -15 67 -6 0 -17 -9 -24 -20z m18
-40 c0 -5 -4 -10 -10 -10 -5 0 -10 5 -10 10 0 6 5 10 10 10 6 0 10 -4 10 -10z"/>
<path d="M850 1780 c-13 -8 -12 -10 3 -10 9 0 20 0 24 -1 4 0 9 4 11 10 5 14
-18 14 -38 1z"/>
<path d="M1376 1775 c4 -8 8 -15 10 -15 2 0 4 7 4 15 0 8 -4 15 -10 15 -5 0
-7 -7 -4 -15z"/>
<path d="M1970 1785 c0 -2 13 -11 28 -19 20 -10 32 -12 43 -4 11 8 11 9 -3 4
-10 -3 -24 1 -32 9 -14 14 -36 20 -36 10z"/>
<path d="M733 1773 c9 -2 25 -2 35 0 9 3 1 5 -18 5 -19 0 -27 -2 -17 -5z"/>
<path d="M955 1760 c-3 -5 -3 -10 2 -10 4 0 3 -4 -3 -8 -9 -5 -8 -11 2 -20 12
-11 14 -8 14 18 0 31 -4 37 -15 20z"/>
<path d="M1956 1755 c4 -8 8 -15 10 -15 2 0 4 7 4 15 0 8 -4 15 -10 15 -5 0
-7 -7 -4 -15z"/>
<path d="M2086 1760 c-11 -4 -13 -9 -6 -20 7 -10 12 -11 18 -4 4 6 27 15 52
21 l45 10 -47 -1 c-26 0 -54 -3 -62 -6z"/>
<path d="M1215 1751 c-3 -5 -1 -12 5 -16 5 -3 10 1 10 9 0 18 -6 21 -15 7z"/>
<path d="M1257 1736 c3 -15 9 -29 14 -32 12 -7 5 34 -8 47 -7 7 -9 3 -6 -15z"/>
<path d="M1362 1735 c0 -16 2 -22 5 -12 2 9 2 23 0 30 -3 6 -5 -1 -5 -18z"/>
<path d="M1860 1745 c0 -16 16 -20 24 -6 3 5 -1 11 -9 15 -9 3 -15 0 -15 -9z"/>
<path d="M1080 1739 c0 -5 5 -7 10 -4 6 3 10 8 10 11 0 2 -4 4 -10 4 -5 0 -10
-5 -10 -11z"/>
<path d="M1626 1737 c3 -10 9 -15 12 -12 3 3 0 11 -7 18 -10 9 -11 8 -5 -6z"/>
<path d="M1925 1740 c-3 -5 -2 -10 4 -10 5 0 13 5 16 10 3 6 2 10 -4 10 -5 0
-13 -4 -16 -10z"/>
<path d="M2050 1740 c0 -5 5 -10 11 -10 5 0 7 5 4 10 -3 6 -8 10 -11 10 -2 0
-4 -4 -4 -10z"/>
<path d="M584 1726 c11 -9 16 -16 12 -16 -5 0 -3 -7 4 -15 7 -8 17 -12 22 -9
6 4 5 10 -3 15 -11 7 -9 9 6 9 16 1 17 2 5 9 -8 5 -26 12 -40 15 -24 7 -24 6
-6 -8z"/>
<path d="M645 1730 c28 -12 45 -12 45 0 0 6 -15 10 -32 9 -28 0 -30 -2 -13 -9z"/>
<path d="M768 1733 c-48 -4 -62 -16 -32 -27 23 -9 36 -7 29 4 -3 6 1 10 10 10
24 0 12 -23 -16 -31 -13 -4 -17 -8 -9 -9 8 -1 2 -8 -15 -15 -17 -8 -23 -14
-13 -15 9 0 30 12 47 26 19 16 38 24 48 20 13 -5 14 -4 4 8 -7 8 -10 20 -6 26
3 5 5 9 3 8 -2 -1 -24 -3 -50 -5z"/>
<path d="M2175 1730 c-3 -5 -2 -10 4 -10 5 0 13 5 16 10 3 6 2 10 -4 10 -5 0
-13 -4 -16 -10z"/>
<path d="M835 1720 c3 -6 20 -10 37 -10 38 0 34 5 -10 13 -21 4 -31 3 -27 -3z"/>
<path d="M1061 1714 c0 -11 3 -14 6 -6 3 7 2 16 -1 19 -3 4 -6 -2 -5 -13z"/>
<path d="M1688 1690 c2 -22 9 -43 15 -47 6 -4 8 4 5 21 -3 14 -1 26 3 26 5 0
4 9 -3 20 -19 30 -24 25 -20 -20z"/>
<path d="M1235 1697 c4 -19 2 -26 -5 -22 -5 3 -10 1 -10 -4 0 -15 11 -13 33 3
12 9 14 16 8 21 -6 3 -11 3 -12 -2 0 -4 -5 1 -10 12 -8 16 -8 15 -4 -8z"/>
<path d="M1384 1696 c3 -16 8 -31 11 -34 9 -10 5 33 -5 48 -8 11 -9 8 -6 -14z"/>
<path d="M1832 1691 c-6 -16 -8 -32 -5 -35 4 -3 1 -6 -6 -6 -9 0 -12 9 -9 25
3 14 2 25 -3 25 -14 0 -20 -39 -10 -58 6 -11 8 -22 6 -26 -3 -3 7 5 21 19 35
33 126 60 153 46 11 -6 30 -11 43 -11 34 0 48 -18 48 -63 0 -30 -7 -45 -29
-65 -48 -45 -55 -48 -93 -47 -26 1 -35 -2 -31 -12 3 -7 0 -20 -7 -28 -9 -10
-9 -15 -1 -15 6 0 11 -4 11 -10 0 -5 -4 -10 -10 -10 -15 0 -60 84 -60 113 0
16 -8 30 -20 37 -23 12 -64 4 -55 -11 4 -5 0 -9 -8 -9 -8 0 -21 -8 -28 -17
-13 -15 -12 -16 9 -11 19 5 21 4 11 -8 -9 -11 -6 -18 15 -35 14 -11 24 -24 21
-29 -3 -5 0 -12 6 -16 8 -4 9 -3 5 4 -5 8 2 12 18 12 14 0 26 -5 26 -11 0 -6
-7 -8 -16 -5 -14 5 -15 4 -4 -9 9 -11 16 -12 25 -5 7 6 21 7 31 3 17 -6 16 -7
-2 -14 -15 -6 -16 -8 -2 -8 31 -2 215 160 203 178 -3 6 -2 11 3 11 10 0 11 31
2 40 -12 12 -30 50 -23 49 28 -5 22 4 -12 21 -40 19 -98 19 -119 -1 -6 -5 -17
-9 -25 -9 -14 0 -14 1 -1 10 17 11 1 13 -25 4 -12 -5 -13 -9 -5 -14 7 -5 3 -9
-12 -12 -21 -4 -24 -1 -20 19 6 32 -4 29 -16 -6z m-8 -146 c21 -32 20 -42 -5
-56 -13 -7 -19 -7 -15 -1 3 6 2 13 -4 17 -12 8 -13 65 -1 65 5 0 16 -11 25
-25z m29 -69 c4 -10 0 -14 -14 -13 -20 1 -24 9 -12 20 10 11 20 8 26 -7z m127
8 c0 -10 -28 -34 -41 -34 -8 0 -5 8 7 19 19 20 34 26 34 15z"/>
<path d="M1800 1522 c0 -5 7 -9 15 -9 8 0 15 4 15 9 0 4 -7 8 -15 8 -8 0 -15
-4 -15 -8z"/>
<path d="M2148 1713 c6 -2 10 -9 6 -14 -3 -5 -1 -9 5 -9 17 0 21 18 5 24 -9 3
-19 6 -22 5 -4 0 -1 -3 6 -6z"/>
<path d="M647 1703 c-10 -9 -9 -23 1 -23 5 0 9 7 9 15 0 17 -1 18 -10 8z"/>
<path d="M842 1690 c2 -10 -5 -15 -24 -15 -35 0 -37 -20 -3 -20 14 -1 25 3 25
8 0 4 4 6 9 3 11 -7 8 20 -3 31 -4 4 -6 1 -4 -7z"/>
<path d="M880 1690 c0 -5 5 -10 11 -10 5 0 7 5 4 10 -3 6 -8 10 -11 10 -2 0
-4 -4 -4 -10z"/>
<path d="M966 1685 c8 -19 44 -40 44 -25 0 5 -7 10 -15 10 -8 0 -15 5 -15 11
0 5 5 7 10 4 6 -3 10 -1 10 4 0 6 -9 11 -20 11 -13 0 -18 -5 -14 -15z"/>
<path d="M2118 1692 c-19 -4 -24 -27 -8 -37 6 -3 10 0 10 9 0 8 6 16 13 19 17
6 5 14 -15 9z"/>
<path d="M680 1680 c8 -5 20 -10 25 -10 6 0 3 5 -5 10 -8 5 -19 10 -25 10 -5
0 -3 -5 5 -10z"/>
<path d="M1350 1675 c0 -8 -8 -23 -19 -34 -19 -19 -16 -34 7 -39 10 -2 11 4 7
19 -5 15 -4 19 4 15 6 -4 11 -1 11 8 0 8 5 16 12 18 6 2 8 10 4 16 -10 17 -26
15 -26 -3z"/>
<path d="M1645 1680 c3 -5 8 -10 11 -10 2 0 4 5 4 10 0 6 -5 10 -11 10 -5 0
-7 -4 -4 -10z"/>
<path d="M1672 1670 c0 -14 2 -19 5 -12 2 6 2 18 0 25 -3 6 -5 1 -5 -13z"/>
<path d="M2280 1680 c0 -6 7 -10 15 -10 8 0 15 2 15 4 0 2 -7 6 -15 10 -8 3
-15 1 -15 -4z"/>
<path d="M540 1670 c-19 -5 -13 -7 25 -7 33 0 43 3 30 8 -24 9 -23 9 -55 -1z"/>
<path d="M1100 1665 c-11 -13 -10 -14 4 -9 9 3 16 10 16 15 0 13 -6 11 -20 -6z"/>
<path d="M2151 1668 c-23 -8 -27 -23 -9 -34 8 -5 9 -2 5 10 -6 15 1 16 64 12
41 -2 67 0 63 4 -12 12 -97 18 -123 8z"/>
<path d="M639 1661 c11 -7 11 -10 -3 -14 -15 -5 -15 -5 0 -3 24 2 30 26 7 26
-14 0 -15 -2 -4 -9z"/>
<path d="M888 1663 c6 -2 18 -2 25 0 6 3 1 5 -13 5 -14 0 -19 -2 -12 -5z"/>
<path d="M1185 1660 c3 -5 10 -10 16 -10 5 0 9 5 9 10 0 6 -7 10 -16 10 -8 0
-12 -4 -9 -10z"/>
<path d="M1925 1662 c-5 -4 -16 -15 -24 -25 -12 -15 -12 -17 3 -11 23 9 20 -9
-4 -26 -11 -8 -20 -18 -20 -23 0 -4 9 -3 20 3 16 9 20 8 20 -5 0 -22 15 -18
27 8 20 47 6 100 -22 79z"/>
<path d="M563 1643 c-23 -8 13 -33 48 -33 18 0 29 4 24 8 -18 15 -60 29 -72
25z"/>
<path d="M856 1642 c-2 -4 4 -8 14 -8 10 0 16 4 14 8 -3 4 -9 8 -14 8 -5 0
-11 -4 -14 -8z"/>
<path d="M666 1629 c2 -3 43 -18 91 -34 157 -50 197 -63 263 -91 36 -14 74
-26 86 -26 11 0 21 -7 21 -15 0 -7 -5 -12 -11 -9 -86 34 -116 45 -116 41 0 -6
136 -75 147 -75 5 0 1 5 -7 11 -13 9 -13 11 2 21 14 11 14 13 -7 30 -13 10
-31 16 -42 12 -14 -4 -15 -4 -4 4 14 10 5 15 -46 27 -64 15 -166 45 -171 50
-4 4 4 4 18 1 14 -3 56 -10 94 -16 38 -6 88 -22 111 -36 23 -13 53 -24 66 -24
16 0 20 -3 11 -9 -10 -6 -10 -10 3 -21 8 -7 15 -9 15 -5 0 4 8 1 17 -6 9 -8
14 -9 10 -2 -4 6 -1 14 5 17 9 4 8 5 -2 5 -30 -2 -41 1 -35 11 3 6 -4 14 -17
19 -13 6 -19 10 -14 10 5 1 1 10 -9 21 -13 14 -22 17 -30 10 -13 -11 -45 -3
-45 11 0 5 -8 8 -17 7 -40 -3 -64 2 -57 13 5 8 2 9 -11 2 -20 -12 -98 4 -89
18 3 5 -7 4 -21 -1 -32 -12 -38 -12 -31 -1 3 5 -1 11 -9 15 -8 3 -17 1 -20 -4
-3 -4 1 -11 7 -13 7 -3 3 -6 -9 -6 -26 -1 -29 8 -10 29 10 12 9 12 -4 2 -9 -6
-20 -8 -24 -4 -5 4 -5 1 -1 -5 10 -18 -6 -16 -30 2 -19 15 -19 15 1 9 17 -5
18 -4 3 5 -17 11 -89 11 -82 0z m51 -5 c-3 -3 -12 -4 -19 -1 -8 3 -5 6 6 6 11
1 17 -2 13 -5z"/>
<path d="M1370 1630 c-13 -8 -12 -13 7 -32 12 -12 26 -19 30 -14 4 4 2 10 -4
14 -6 4 -12 15 -14 24 -3 13 -8 15 -19 8z"/>
<path d="M2220 1632 c8 -3 21 -12 29 -20 10 -10 16 -11 19 -3 2 6 10 11 18 11
8 0 14 3 14 8 0 4 -21 8 -48 8 -26 1 -40 -1 -32 -4z"/>
<path d="M1110 1610 c10 -18 14 -19 28 -8 27 20 28 21 12 16 -8 -3 -23 -1 -33
4 -17 8 -17 7 -7 -12z"/>
<path d="M1528 1623 c7 -3 16 -2 19 1 4 3 -2 6 -13 5 -11 0 -14 -3 -6 -6z"/>
<path d="M1682 1610 c0 -14 2 -19 5 -12 2 6 2 18 0 25 -3 6 -5 1 -5 -13z"/>
<path d="M520 1610 c-9 -6 -10 -10 -3 -10 6 0 15 5 18 10 8 12 4 12 -15 0z"/>
<path d="M1626 1598 c7 -23 34 -55 34 -41 0 5 -7 18 -15 29 -8 12 -11 24 -8
28 3 3 1 6 -6 6 -8 0 -10 -7 -5 -22z"/>
<path d="M1970 1610 c0 -5 5 -10 11 -10 5 0 7 5 4 10 -3 6 -8 10 -11 10 -2 0
-4 -4 -4 -10z"/>
<path d="M2026 1605 c-9 -26 -7 -32 5 -12 6 10 9 21 6 23 -2 3 -7 -2 -11 -11z"/>
<path d="M2140 1611 c0 -4 -18 -29 -40 -54 -33 -37 -37 -46 -24 -51 12 -5 15
-2 10 10 -4 12 -2 15 9 10 8 -3 14 -1 12 3 -1 5 8 23 21 40 l22 31 31 -30 c17
-16 28 -33 25 -39 -4 -5 2 -14 11 -20 10 -6 12 -11 6 -11 -7 0 -13 -4 -13 -9
0 -6 9 -9 20 -8 11 1 20 4 20 8 0 4 3 14 6 22 4 11 -2 14 -23 11 -15 -2 -20
-1 -10 2 9 3 17 10 17 16 0 6 15 8 38 5 31 -5 29 -3 -13 10 -27 8 -51 19 -53
24 -2 5 -10 9 -17 9 -7 0 -15 7 -19 15 -6 16 -36 21 -36 6z"/>
<path d="M674 1595 c8 -8 27 -15 42 -15 19 0 25 -3 18 -10 -8 -8 -19 -8 -38 0
-21 8 -31 7 -42 -5 -10 -9 -34 -15 -63 -15 -26 0 -52 -5 -58 -11 -13 -13 -6
-39 9 -39 7 0 6 5 -1 14 -9 11 -6 12 16 9 23 -4 25 -2 13 7 -12 9 -10 11 13 7
15 -2 43 1 62 8 19 6 72 11 118 10 l82 -2 -90 28 c-49 16 -91 29 -93 29 -2 0
3 -7 12 -15z"/>
<path d="M1530 1600 c0 -5 5 -10 10 -10 6 0 10 5 10 10 0 6 -4 10 -10 10 -5 0
-10 -4 -10 -10z"/>
<path d="M2280 1590 c-9 -16 -8 -20 5 -20 8 0 15 2 15 4 0 2 3 11 6 20 9 23
-13 20 -26 -4z"/>
<path d="M535 1590 c-4 -6 6 -10 22 -10 22 0 25 -2 13 -10 -8 -5 -10 -10 -5
-10 6 0 17 4 25 10 11 7 9 11 -13 19 -34 13 -34 13 -42 1z"/>
<path d="M611 1597 c2 -1 11 -8 20 -15 13 -9 16 -9 16 3 0 8 -9 15 -20 15 -11
0 -18 -1 -16 -3z"/>
<path d="M490 1586 c0 -2 7 -7 16 -10 8 -3 12 -2 9 4 -6 10 -25 14 -25 6z"/>
<path d="M1197 1574 c5 -14 2 -16 -20 -10 -15 3 -27 2 -27 -3 0 -13 41 -41 51
-35 4 2 15 -6 23 -18 9 -12 18 -20 20 -17 7 7 -36 99 -46 99 -4 0 -5 -7 -1
-16z"/>
<path d="M1578 1583 c7 -3 16 -2 19 1 4 3 -2 6 -13 5 -11 0 -14 -3 -6 -6z"/>
<path d="M1985 1580 c3 -5 8 -10 11 -10 2 0 4 5 4 10 0 6 -5 10 -11 10 -5 0
-7 -4 -4 -10z"/>
<path d="M1491 1553 c-7 -8 -11 -16 -8 -19 2 -2 10 2 17 11 17 20 9 27 -9 8z"/>
<path d="M2010 1555 c0 -7 -8 -19 -17 -24 -24 -14 -7 -14 18 -1 20 11 27 40 9
40 -5 0 -10 -7 -10 -15z"/>
<path d="M2140 1560 c0 -9 39 -25 45 -18 2 2 -7 8 -21 15 -13 6 -24 7 -24 3z"/>
<path d="M1598 1543 c7 -3 16 -2 19 1 4 3 -2 6 -13 5 -11 0 -14 -3 -6 -6z"/>
<path d="M665 1523 l-50 -12 65 5 c90 7 104 6 108 -6 5 -13 32 -13 32 0 0 15
16 12 34 -5 8 -9 22 -12 32 -8 11 4 15 2 11 -4 -7 -10 55 -33 90 -33 10 0 28
-7 39 -15 11 -9 13 -13 4 -10 -15 5 -61 13 -110 19 -14 2 -29 4 -33 5 -5 0 -6
5 -3 10 7 11 -69 25 -84 16 -6 -3 -8 -11 -5 -16 4 -5 2 -9 -3 -9 -6 0 -12 6
-15 14 -3 8 -16 20 -29 27 -22 11 -22 11 2 -12 l25 -24 -38 -3 c-20 -2 -37 -7
-37 -12 0 -5 12 -7 28 -4 39 7 142 10 142 4 0 -9 131 -31 142 -24 7 5 8 2 3
-5 -5 -10 2 -12 31 -11 62 4 72 2 54 -11 -12 -9 -12 -10 3 -5 10 3 33 6 50 7
29 1 28 2 -10 9 -23 5 -59 19 -80 32 -66 42 -134 69 -206 84 -78 17 -120 16
-192 -3z m180 -53 c8 -13 -15 -13 -35 0 -12 8 -11 10 7 10 12 0 25 -4 28 -10z"/>
<path d="M1390 1532 c0 -8 45 -44 60 -48 21 -4 60 -25 75 -41 18 -17 19 -17
12 0 -4 10 -7 25 -7 33 0 11 -6 13 -20 9 -12 -4 -31 0 -45 9 -14 9 -36 23 -50
32 -14 9 -25 12 -25 6z"/>
<path d="M1863 1521 c2 -10 8 -26 15 -33 6 -8 9 -18 5 -21 -3 -4 1 -7 11 -7
20 0 18 38 -3 64 -18 22 -32 20 -28 -3z"/>
<path d="M1200 1511 c0 -5 5 -13 10 -16 6 -3 10 -2 10 4 0 5 -4 13 -10 16 -5
3 -10 2 -10 -4z"/>
<path d="M1588 1513 c6 -2 18 -2 25 0 6 3 1 5 -13 5 -14 0 -19 -2 -12 -5z"/>
<path d="M2278 1513 c6 -2 18 -2 25 0 6 3 1 5 -13 5 -14 0 -19 -2 -12 -5z"/>
<path d="M2101 1494 c-12 -14 -11 -16 4 -12 10 1 20 9 23 16 5 17 -10 15 -27
-4z"/>
<path d="M2140 1500 c0 -5 10 -10 23 -10 18 0 19 2 7 10 -19 13 -30 13 -30 0z"/>
<path d="M590 1490 c-13 -8 -12 -10 3 -10 9 0 17 5 17 10 0 12 -1 12 -20 0z"/>
<path d="M630 1489 c-12 -8 -11 -9 6 -4 12 3 34 1 50 -5 17 -7 25 -7 19 -1
-16 16 -59 22 -75 10z"/>
<path d="M1571 1473 c-1 -17 -6 -35 -11 -38 -6 -4 -8 -15 -5 -26 7 -22 -1 -26
-64 -33 -44 -5 -71 -20 -58 -32 4 -4 12 -2 19 3 7 6 38 14 68 17 53 7 56 8 54
34 -1 15 3 35 7 44 5 9 5 26 0 40 -9 22 -10 21 -10 -9z"/>
<path d="M2019 1476 c-13 -12 -40 -33 -59 -48 -19 -15 -30 -28 -25 -28 6 0 28
15 50 34 21 19 46 32 54 29 13 -4 13 -3 2 5 -8 6 -10 12 -3 16 6 4 14 0 19 -7
9 -15 63 -29 63 -16 0 4 -12 9 -27 11 -16 2 -27 8 -26 14 3 17 -22 12 -48 -10z"/>
<path d="M2296 1479 c-11 -10 -27 -17 -36 -14 -9 3 -28 -4 -42 -14 -27 -22
-83 -36 -135 -36 -18 0 -33 -2 -33 -6 0 -4 -17 -5 -39 -3 -26 3 -42 0 -51 -11
-15 -18 -55 -21 -44 -3 4 7 3 8 -4 4 -19 -11 -14 -26 9 -26 13 0 18 -4 13 -12
-5 -8 -2 -9 10 -5 10 4 21 7 24 7 4 0 0 5 -8 11 -11 8 -7 9 17 4 53 -10 244
42 313 86 8 5 23 12 33 15 9 4 17 10 17 15 0 15 -24 9 -44 -12z"/>
<path d="M522 1471 c14 -11 35 -21 45 -21 10 0 28 -7 41 -15 20 -14 21 -14 16
0 -3 8 -2 15 4 15 6 0 12 -4 14 -9 2 -5 14 -3 28 4 24 14 23 14 -25 16 -27 1
-63 1 -80 1 -26 -1 -27 0 -10 7 14 7 15 10 5 10 -8 1 -26 4 -40 8 l-25 6 27
-22z"/>
<path d="M728 1473 c7 -3 16 -2 19 1 4 3 -2 6 -13 5 -11 0 -14 -3 -6 -6z"/>
<path d="M1610 1449 c-14 -26 -7 -35 10 -14 7 8 21 15 31 15 11 0 19 5 19 10
0 19 -49 10 -60 -11z"/>
<path d="M1690 1460 c0 -13 11 -13 30 0 12 8 11 10 -7 10 -13 0 -23 -4 -23
-10z"/>
<path d="M2283 1440 c-63 -34 -156 -66 -238 -81 -33 -6 -64 -14 -70 -17 -5 -4
-19 -8 -29 -9 -26 -4 -34 -13 -13 -13 21 0 320 67 365 81 33 11 44 29 16 29
-8 0 -13 -3 -11 -7 3 -5 -9 -9 -26 -9 -27 -1 -23 2 29 26 32 16 52 28 44 29
-8 0 -38 -13 -67 -29z"/>
<path d="M2168 1453 c6 -2 18 -2 25 0 6 3 1 5 -13 5 -14 0 -19 -2 -12 -5z"/>
<path d="M2050 1440 c-8 -5 -10 -10 -5 -10 6 0 17 5 25 10 8 5 11 10 5 10 -5
0 -17 -5 -25 -10z"/>
<path d="M488 1423 c6 -2 12 -9 12 -14 0 -6 -4 -7 -10 -4 -5 3 -10 1 -10 -5 0
-15 51 -4 61 12 4 6 12 7 18 4 6 -4 19 -3 28 3 14 7 10 9 -18 7 -20 -2 -41 -6
-48 -10 -6 -4 -11 -2 -11 3 0 6 -8 11 -17 10 -11 0 -13 -3 -5 -6z"/>
<path d="M1205 1420 c3 -5 8 -10 11 -10 2 0 4 5 4 10 0 6 -5 10 -11 10 -5 0
-7 -4 -4 -10z"/>
<path d="M2008 1423 c7 -3 16 -2 19 1 4 3 -2 6 -13 5 -11 0 -14 -3 -6 -6z"/>
<path d="M690 1410 c-11 -7 -11 -10 -2 -10 7 0 10 -4 7 -10 -3 -5 -1 -10 4
-10 6 0 11 5 11 10 0 6 7 10 15 10 8 0 15 -4 15 -10 0 -14 26 -13 50 2 15 10
26 10 53 0 18 -7 53 -12 78 -12 24 0 64 -5 88 -11 45 -10 85 -4 76 12 -4 5
-16 7 -28 4 -12 -3 -51 1 -87 10 -82 19 -260 29 -280 15z"/>
<path d="M605 1404 c-62 -13 -105 -28 -105 -35 0 -13 28 -11 32 2 4 13 71 17
113 7 17 -4 24 -5 17 -2 -10 5 -10 9 0 22 10 14 10 15 -2 5 -17 -15 -34 -17
-25 -3 6 10 4 11 -30 4z"/>
<path d="M1650 1390 c-9 -6 -10 -10 -3 -10 6 0 15 5 18 10 8 12 4 12 -15 0z"/>
<path d="M2308 1388 c-16 -5 -28 -14 -28 -19 0 -6 -5 -7 -11 -4 -6 4 -29 0
-52 -8 -60 -22 -179 -47 -223 -47 -26 0 -35 -3 -28 -10 9 -9 73 -3 259 25 11
1 25 3 30 4 6 1 3 6 -5 11 -11 7 -5 8 19 3 23 -4 32 -3 28 4 -8 13 13 32 50
43 19 6 22 8 8 8 -11 0 -32 -4 -47 -10z"/>
<path d="M1115 1380 c-8 -13 5 -13 25 0 13 8 13 10 -2 10 -9 0 -20 -4 -23 -10z"/>
<path d="M1400 1380 c-9 -6 -10 -10 -3 -10 6 0 15 5 18 10 8 12 4 12 -15 0z"/>
<path d="M1260 1370 c0 -5 7 -10 15 -10 8 0 15 5 15 10 0 6 -7 10 -15 10 -8 0
-15 -4 -15 -10z"/>
<path d="M1328 1373 c7 -3 16 -2 19 1 4 3 -2 6 -13 5 -11 0 -14 -3 -6 -6z"/>
<path d="M798 1363 c6 -2 18 -2 25 0 6 3 1 5 -13 5 -14 0 -19 -2 -12 -5z"/>
<path d="M1590 1360 c0 -5 7 -10 15 -10 8 0 15 5 15 10 0 6 -7 10 -15 10 -8 0
-15 -4 -15 -10z"/>
<path d="M705 1350 c-25 -6 -27 -8 -12 -15 9 -4 23 -3 30 3 6 6 23 12 37 15
l25 4 -25 0 c-14 1 -38 -3 -55 -7z"/>
<path d="M860 1344 c-34 -12 -34 -12 25 -9 33 2 69 6 80 10 15 5 14 3 -4 -8
l-24 -14 38 -7 c49 -9 111 1 149 26 27 17 28 19 6 12 -71 -20 -131 -31 -136
-23 -3 5 3 9 13 10 14 0 13 2 -5 10 -31 12 -98 9 -142 -7z"/>
<path d="M1220 1350 c-12 -8 -10 -10 8 -10 13 0 20 4 17 10 -7 12 -6 12 -25 0z"/>
<path d="M1653 1342 c15 -9 27 -22 27 -28 0 -17 29 -26 48 -14 14 8 12 9 -12
10 -16 0 -26 3 -23 6 9 9 -33 44 -52 44 -10 0 -6 -7 12 -18z"/>
<path d="M2323 1353 c9 -2 25 -2 35 0 9 3 1 5 -18 5 -19 0 -27 -2 -17 -5z"/>
<path d="M1375 1314 c-16 -20 -40 -47 -52 -60 -23 -25 -30 -44 -15 -44 10 0
40 34 66 75 11 17 25 34 33 38 14 9 18 27 6 27 -5 0 -21 -16 -38 -36z"/>
<path d="M608 1333 c6 -2 18 -2 25 0 6 3 1 5 -13 5 -14 0 -19 -2 -12 -5z"/>
<path d="M780 1330 c13 -8 12 -10 -4 -10 -18 0 -18 -1 -3 -18 19 -21 23 -37 6
-27 -15 10 -61 -4 -54 -15 6 -9 -8 -17 -60 -35 -13 -5 -15 -9 -7 -12 7 -3 29
4 50 15 20 10 60 26 87 35 29 10 56 27 64 40 10 17 11 19 0 10 -7 -7 -21 -13
-32 -13 -10 0 -15 -4 -12 -10 10 -16 -11 -12 -25 5 -9 10 -9 15 -1 15 6 0 11
7 11 15 0 8 -8 15 -17 15 -15 0 -16 -2 -3 -10z"/>
<path d="M520 1320 c14 -4 36 -8 50 -8 22 0 22 1 -5 8 -16 4 -39 8 -50 8 -16
0 -15 -2 5 -8z"/>
<path d="M665 1320 c-3 -5 -1 -10 4 -10 6 0 11 5 11 10 0 6 -2 10 -4 10 -3 0
-8 -4 -11 -10z"/>
<path d="M1130 1320 c0 -5 -6 -10 -14 -10 -19 0 -43 -30 -25 -31 8 0 5 -4 -6
-9 -14 -6 -16 -9 -4 -9 8 -1 24 6 35 15 16 13 16 15 2 10 -10 -3 -18 -1 -18 4
0 6 9 10 19 10 11 0 23 5 26 11 4 6 13 8 21 5 7 -3 16 -1 19 4 4 6 -7 10 -24
10 -17 0 -31 -4 -31 -10z"/>
<path d="M1560 1320 c0 -5 5 -10 11 -10 5 0 7 5 4 10 -3 6 -8 10 -11 10 -2 0
-4 -4 -4 -10z"/>
<path d="M2190 1304 c-69 -12 -141 -23 -160 -24 -31 -2 -32 -3 -10 -9 15 -4
20 -10 13 -14 -6 -4 -23 -3 -38 3 -40 15 -66 11 -30 -5 29 -13 78 -19 230 -30
51 -3 65 -2 52 6 -9 5 -22 7 -28 4 -5 -4 -21 1 -36 10 -14 9 -28 13 -32 8 -10
-14 -49 -13 -79 3 -27 14 -26 14 21 10 26 -2 50 1 53 5 3 5 14 9 25 9 11 0 18
-4 15 -9 -3 -5 1 -11 9 -14 9 -4 12 -1 8 9 -4 10 3 14 23 15 l29 1 -30 8 c-22
6 -24 8 -9 9 12 0 36 4 53 7 27 6 33 3 38 -15 6 -23 11 -25 33 -11 13 8 13 10
-1 10 -9 0 -19 6 -22 14 -4 11 3 16 26 19 l32 4 -30 0 c-16 0 -86 -10 -155
-23z"/>
<path d="M876 1305 c-5 -13 0 -15 32 -9 43 8 54 14 24 14 -11 0 -27 3 -35 6
-8 3 -17 -2 -21 -11z"/>
<path d="M1432 1300 c-7 -11 -9 -20 -4 -20 4 0 13 9 20 20 7 11 9 20 4 20 -4
0 -13 -9 -20 -20z"/>
<path d="M1050 1300 c-23 -7 -23 -8 -3 -9 12 -1 25 4 28 9 3 6 5 10 3 9 -2 -1
-14 -5 -28 -9z"/>
<path d="M515 1290 c-19 -8 -19 -9 3 -9 12 -1 22 4 22 9 0 6 -1 10 -2 9 -2 0
-12 -4 -23 -9z"/>
<path d="M628 1293 c7 -3 16 -2 19 1 4 3 -2 6 -13 5 -11 0 -14 -3 -6 -6z"/>
<path d="M668 1293 c7 -3 16 -2 19 1 4 3 -2 6 -13 5 -11 0 -14 -3 -6 -6z"/>
<path d="M1270 1291 c0 -6 5 -13 10 -16 6 -3 10 1 10 9 0 9 -4 16 -10 16 -5 0
-10 -4 -10 -9z"/>
<path d="M848 1263 c-43 -15 -74 -31 -71 -36 3 -6 1 -7 -5 -3 -6 4 -42 -9 -79
-29 -37 -20 -59 -33 -48 -29 11 4 36 8 55 8 28 1 227 90 248 111 11 11 -27 2
-100 -22z m-108 -67 c0 -11 -19 -15 -25 -6 -3 5 1 10 9 10 9 0 16 -2 16 -4z"/>
<path d="M970 1280 c-13 -9 -13 -10 0 -9 8 0 24 4 35 9 20 9 20 9 0 9 -11 0
-27 -4 -35 -9z"/>
<path d="M1218 1272 c-20 -23 -41 -63 -35 -68 2 -3 10 9 17 26 7 16 18 30 26
30 16 0 27 17 15 24 -4 3 -15 -2 -23 -12z"/>
<path d="M1560 1281 c0 -10 19 -25 25 -20 1 2 -3 10 -11 17 -8 7 -14 8 -14 3z"/>
<path d="M1650 1280 c0 -5 5 -10 11 -10 5 0 7 5 4 10 -3 6 -8 10 -11 10 -2 0
-4 -4 -4 -10z"/>
<path d="M988 1260 c-25 -9 -61 -20 -80 -24 -18 -4 -42 -14 -53 -23 -19 -15
-18 -15 15 -9 27 4 31 3 17 -5 -10 -6 -28 -9 -41 -7 -12 1 -31 -6 -41 -16 -19
-18 -18 -18 5 -12 57 16 110 38 106 45 -2 3 7 11 20 18 14 7 24 7 24 1 0 -5 7
-2 16 6 8 9 26 16 38 16 13 0 29 7 36 15 17 20 0 19 -62 -5z"/>
<path d="M1109 1246 c-16 -15 -29 -33 -29 -38 0 -6 -7 -8 -14 -5 -9 4 -13 1
-10 -7 3 -7 -9 -28 -25 -47 -16 -18 -32 -42 -35 -51 -8 -32 20 -6 62 57 44 66
88 112 98 102 4 -3 -16 -31 -43 -62 -65 -73 -81 -101 -64 -118 10 -9 15 -8 26
6 7 10 15 14 17 10 3 -4 3 -3 2 4 -2 7 1 15 6 18 6 4 10 11 10 16 0 6 -7 3
-16 -6 -20 -20 -29 -13 -16 12 6 10 18 18 28 18 9 0 19 6 22 14 3 9 0 11 -9 6
-8 -5 5 11 29 35 23 24 42 49 42 54 0 22 -52 10 -81 -18z m-47 -158 c-7 -7
-12 -8 -12 -2 0 14 12 26 19 19 2 -3 -1 -11 -7 -17z"/>
<path d="M1455 1270 c-3 -5 1 -10 9 -10 9 0 16 5 16 10 0 6 -4 10 -9 10 -6 0
-13 -4 -16 -10z"/>
<path d="M1736 1248 c10 -18 18 -54 18 -80 1 -25 4 -41 8 -35 5 7 8 2 8 -13 1
-22 2 -23 11 -8 7 12 7 24 0 37 -6 10 -8 21 -4 24 3 4 1 13 -6 20 -6 8 -9 22
-5 31 4 10 1 16 -7 16 -11 0 -11 3 1 10 13 8 12 10 -2 10 -10 0 -18 5 -18 10
0 6 -5 10 -10 10 -6 0 -3 -15 6 -32z"/>
<path d="M695 1260 c-3 -5 -1 -10 4 -10 6 0 11 5 11 10 0 6 -2 10 -4 10 -3 0
-8 -4 -11 -10z"/>
<path d="M500 1250 c0 -5 4 -10 9 -10 5 0 18 -3 28 -6 16 -5 16 -4 -1 10 -23
18 -36 20 -36 6z"/>
<path d="M1690 1240 c0 -11 2 -20 4 -20 2 0 6 9 9 20 3 11 1 20 -4 20 -5 0 -9
-9 -9 -20z"/>
<path d="M1065 1240 c-16 -7 -17 -9 -3 -9 9 -1 20 4 23 9 7 11 7 11 -20 0z"/>
<path d="M1426 1235 c-3 -8 -1 -15 4 -15 6 0 10 7 10 15 0 8 -2 15 -4 15 -2 0
-6 -7 -10 -15z"/>
<path d="M2270 1240 c0 -5 6 -10 13 -10 8 0 7 -4 -3 -10 -11 -7 -2 -9 30 -8
27 0 35 3 20 5 -14 3 -29 11 -33 19 -9 16 -27 19 -27 4z"/>
<path d="M2320 1241 c0 -5 9 -7 20 -4 11 3 20 7 20 9 0 2 -9 4 -20 4 -11 0
-20 -4 -20 -9z"/>
<path d="M610 1230 c8 -5 20 -10 25 -10 6 0 3 5 -5 10 -8 5 -19 10 -25 10 -5
0 -3 -5 5 -10z"/>
<path d="M1016 1231 c-3 -5 1 -11 9 -15 9 -3 15 0 15 9 0 16 -16 20 -24 6z"/>
<path d="M1275 1220 c9 -30 13 -35 21 -27 3 3 -2 16 -11 29 l-17 23 7 -25z"/>
<path d="M1551 1224 c0 -11 3 -14 6 -6 3 7 2 16 -1 19 -3 4 -6 -2 -5 -13z"/>
<path d="M1840 1219 c0 -5 5 -7 10 -4 6 3 10 8 10 11 0 2 -4 4 -10 4 -5 0 -10
-5 -10 -11z"/>
<path d="M1974 1211 c11 -12 37 -21 79 -25 52 -6 109 -17 262 -52 11 -3 4 4
-15 15 -21 11 -84 27 -154 37 -76 12 -112 21 -100 25 16 7 17 8 2 8 -9 1 -19
-3 -22 -8 -7 -11 -46 -2 -46 10 0 5 -5 9 -12 9 -6 0 -4 -8 6 -19z"/>
<path d="M980 1209 c0 -5 5 -7 10 -4 6 3 10 8 10 11 0 2 -4 4 -10 4 -5 0 -10
-5 -10 -11z"/>
<path d="M1362 1211 c-10 -6 -10 -10 2 -20 12 -10 15 -9 13 8 -1 12 -1 21 -2
21 0 0 -6 -4 -13 -9z"/>
<path d="M2208 1194 c92 -19 122 -22 170 -14 l57 9 -65 -4 c-46 -3 -59 -1 -45
6 18 9 18 9 -4 5 -13 -3 -62 2 -110 9 -129 22 -131 16 -3 -11z"/>
<path d="M1217 1203 c-4 -3 -7 -17 -7 -29 0 -13 -8 -27 -17 -33 -10 -5 -14
-13 -10 -18 5 -4 15 0 22 10 13 18 13 18 18 0 2 -10 4 3 3 29 -1 27 -1 48 -2
48 0 0 -4 -3 -7 -7z"/>
<path d="M1423 1195 c-17 -18 -16 -25 1 -25 7 0 16 9 19 20 6 23 -3 25 -20 5z"/>
<path d="M606 1188 c3 -5 -5 -12 -18 -17 -13 -6 -16 -10 -8 -10 8 0 26 8 40
19 24 18 24 19 3 17 -12 0 -19 -5 -17 -9z"/>
<path d="M922 1184 c-12 -8 -22 -12 -22 -8 0 4 -9 -1 -20 -11 -27 -25 -8 -37
40 -25 34 8 34 8 6 9 -16 1 -26 4 -22 9 10 9 56 10 50 1 -2 -4 3 -9 11 -13 8
-3 19 3 25 13 11 22 -8 35 -31 20 -23 -15 -35 -9 -15 6 26 20 6 19 -22 -1z"/>
<path d="M1017 1186 c-4 -10 -1 -13 8 -9 8 3 12 9 9 14 -7 12 -11 11 -17 -5z"/>
<path d="M1260 1180 c0 -20 -2 -22 -10 -10 -8 12 -10 11 -10 -7 0 -16 4 -21
16 -16 9 3 20 0 26 -8 11 -17 0 28 -13 51 -6 11 -9 9 -9 -10z"/>
<path d="M470 1180 c-13 -8 -12 -10 3 -10 9 0 17 5 17 10 0 12 -1 12 -20 0z"/>
<path d="M743 1162 c-43 -28 -57 -47 -25 -35 17 7 82 63 72 63 -3 0 -24 -13
-47 -28z"/>
<path d="M1166 1154 c-4 -20 -5 -38 -3 -40 3 -3 8 11 11 32 4 20 5 38 3 40 -3
3 -8 -11 -11 -32z"/>
<path d="M1336 1175 c-3 -9 -6 -24 -5 -33 0 -9 5 -4 10 12 9 32 6 48 -5 21z"/>
<path d="M1657 1170 c3 -11 7 -20 8 -20 1 0 5 9 8 20 3 12 0 20 -8 20 -8 0
-11 -8 -8 -20z"/>
<path d="M1841 1174 c0 -11 3 -14 6 -6 3 7 2 16 -1 19 -3 4 -6 -2 -5 -13z"/>
<path d="M1880 1169 c7 -11 14 -19 16 -16 7 7 -7 37 -17 37 -6 0 -5 -9 1 -21z"/>
<path d="M1960 1140 c51 -48 68 -61 55 -40 -3 6 2 10 12 10 10 0 -6 11 -35 25
-29 14 -51 29 -48 34 5 8 -15 21 -31 21 -3 0 18 -22 47 -50z"/>
<path d="M1512 1160 c0 -14 2 -19 5 -12 2 6 2 18 0 25 -3 6 -5 1 -5 -13z"/>
<path d="M1806 1165 c4 -8 11 -15 16 -15 6 0 5 6 -2 15 -7 8 -14 15 -16 15 -2
0 -1 -7 2 -15z"/>
<path d="M2010 1170 c0 -12 36 -22 78 -22 20 0 49 -7 65 -15 15 -7 37 -11 47
-8 12 4 27 -2 41 -16 18 -18 25 -19 45 -10 13 6 31 8 41 4 11 -5 14 -3 9 6 -5
7 -17 11 -27 8 -11 -3 -19 -1 -19 4 0 5 -4 9 -10 9 -5 0 -7 -8 -3 -17 5 -15 2
-14 -18 4 -13 12 -42 24 -64 28 -22 4 -53 10 -70 15 -48 13 -115 19 -115 10z"/>
<path d="M1134 1154 c-3 -10 -10 -29 -15 -42 -12 -32 -11 -36 5 -23 16 13 31
69 22 78 -3 3 -8 -3 -12 -13z"/>
<path d="M1970 1165 c0 -3 26 -17 58 -31 31 -15 61 -29 66 -32 5 -3 6 1 1 8
-6 10 -4 12 9 7 10 -4 21 -7 24 -7 4 0 2 -4 -3 -8 -6 -4 21 -23 62 -42 39 -20
67 -30 61 -23 -5 7 -8 20 -4 28 3 10 2 13 -5 9 -6 -3 -21 4 -35 17 -13 12 -24
19 -24 15 0 -4 10 -16 23 -27 12 -10 17 -18 11 -19 -6 0 -19 9 -28 19 -10 11
-25 17 -34 14 -9 -4 -13 -2 -9 4 6 10 -32 36 -49 32 -5 -1 -11 0 -14 1 -3 1
-12 3 -20 5 -8 2 -32 10 -52 19 -21 9 -38 14 -38 11z"/>
<path d="M666 1151 c-4 -5 3 -7 14 -4 23 6 26 13 6 13 -8 0 -17 -4 -20 -9z"/>
<path d="M818 1150 c-15 -4 -28 -7 -30 -5 -2 2 -9 -4 -17 -12 -12 -13 -11 -14
10 -8 45 14 69 25 69 30 0 3 -1 5 -2 4 -2 0 -15 -4 -30 -9z"/>
<path d="M1351 1144 c0 -11 3 -14 6 -6 3 7 2 16 -1 19 -3 4 -6 -2 -5 -13z"/>
<path d="M1942 1127 c14 -14 29 -35 33 -46 3 -12 12 -18 20 -15 9 4 16 -3 21
-20 3 -14 13 -26 21 -26 20 0 -40 73 -88 108 l-34 26 27 -27z"/>
<path d="M2350 1141 c0 -5 7 -11 14 -14 10 -4 13 -1 9 9 -6 15 -23 19 -23 5z"/>
<path d="M620 1130 c0 -5 4 -10 9 -10 6 0 13 5 16 10 3 6 -1 10 -9 10 -9 0
-16 -4 -16 -10z"/>
<path d="M960 1128 c0 -14 18 -17 28 -5 8 10 6 13 -9 13 -10 0 -19 -4 -19 -8z"/>
<path d="M1412 1115 c0 -16 2 -22 5 -12 2 9 2 23 0 30 -3 6 -5 -1 -5 -18z"/>
<path d="M1656 1124 c-4 -9 -4 -19 -1 -22 2 -3 7 3 11 12 4 9 4 19 1 22 -2 3
-7 -3 -11 -12z"/>
<path d="M1825 1129 c-4 -6 -5 -12 -2 -15 2 -3 7 2 10 11 7 17 1 20 -8 4z"/>
<path d="M1900 1134 c0 -4 12 -21 28 -37 27 -29 27 -29 2 -16 -14 8 -28 19
-32 24 -5 6 -8 4 -8 -5 -1 -9 -6 -5 -16 10 l-15 25 7 -25 c4 -14 7 -35 6 -47
-1 -12 3 -25 8 -28 6 -3 10 -1 10 4 0 22 17 10 33 -24 9 -19 13 -35 8 -35 -6
0 -13 9 -16 21 -4 11 -9 18 -12 16 -8 -9 17 -47 31 -47 8 0 16 -7 20 -15 3 -8
12 -15 21 -15 12 0 11 4 -5 20 -22 22 -27 45 -7 37 7 -3 13 3 13 13 0 10 -3
18 -6 18 -19 -2 -23 4 -10 13 13 9 13 10 0 6 -9 -2 -14 -13 -12 -27 2 -14 0
-20 -7 -16 -6 4 -11 16 -11 26 0 11 -9 24 -20 30 -11 6 -20 15 -20 21 0 6 9 4
23 -3 12 -7 30 -13 40 -14 14 -1 15 1 5 15 -24 31 -58 64 -58 55z"/>
<path d="M2398 1133 c7 -3 16 -2 19 1 4 3 -2 6 -13 5 -11 0 -14 -3 -6 -6z"/>
<path d="M506 1122 c-3 -5 1 -9 9 -9 8 0 12 4 9 9 -3 4 -7 8 -9 8 -2 0 -6 -4
-9 -8z"/>
<path d="M592 1116 c7 -8 15 -12 17 -11 5 6 -10 25 -20 25 -5 0 -4 -6 3 -14z"/>
<path d="M825 1120 c-13 -5 -14 -9 -5 -9 8 0 24 4 35 9 13 5 14 9 5 9 -8 0
-24 -4 -35 -9z"/>
<path d="M905 1120 c-7 -12 2 -12 30 0 19 8 19 9 -2 9 -12 1 -25 -3 -28 -9z"/>
<path d="M1700 1109 c0 -5 5 -7 10 -4 6 3 10 8 10 11 0 2 -4 4 -10 4 -5 0 -10
-5 -10 -11z"/>
<path d="M858 1103 c6 -2 18 -2 25 0 6 3 1 5 -13 5 -14 0 -19 -2 -12 -5z"/>
<path d="M1791 1103 c-2 -21 11 -43 22 -36 6 4 8 0 4 -11 -4 -10 -3 -15 3 -11
6 3 10 1 10 -4 0 -6 -4 -11 -10 -11 -5 0 -10 -8 -10 -17 0 -16 -2 -16 -11 -3
-9 12 -10 12 -5 -3 3 -10 6 -24 6 -30 1 -7 7 2 15 18 7 17 14 24 14 17 1 -7 5
-11 10 -7 5 3 12 -5 14 -17 4 -20 4 -20 6 4 0 15 -4 30 -9 33 -6 4 -8 10 -5
15 3 4 -2 13 -10 20 -8 7 -15 20 -15 29 0 13 -2 13 -9 2 -7 -11 -10 -10 -14 5
-2 10 -5 14 -6 7z"/>
<path d="M2032 1098 c-13 -13 2 -38 23 -38 18 0 67 -26 92 -50 29 -26 41 -26
17 1 -10 12 -44 34 -74 50 -30 15 -48 28 -40 28 8 0 24 -6 34 -14 11 -8 27
-15 37 -15 9 0 22 -7 29 -15 7 -8 16 -12 21 -9 5 3 9 0 9 -6 0 -6 5 -8 10 -5
6 3 10 2 10 -3 0 -5 12 -12 27 -15 26 -5 27 -4 8 10 -16 12 -180 93 -189 93
-1 0 -7 -5 -14 -12z"/>
<path d="M553 1093 c9 -2 23 -2 30 0 6 3 -1 5 -18 5 -16 0 -22 -2 -12 -5z"/>
<path d="M690 1090 c0 -5 7 -7 15 -4 8 4 15 8 15 10 0 2 -7 4 -15 4 -8 0 -15
-4 -15 -10z"/>
<path d="M896 1092 c-2 -4 4 -8 14 -8 10 0 16 4 14 8 -3 4 -9 8 -14 8 -5 0
-11 -4 -14 -8z"/>
<path d="M1387 1087 c-11 -29 -9 -43 4 -30 6 6 9 19 7 29 -3 18 -4 18 -11 1z"/>
<path d="M1513 1085 c-7 -8 -13 -29 -13 -46 0 -37 6 -36 13 1 3 14 8 33 12 43
9 20 4 21 -12 2z"/>
<path d="M1735 1090 c3 -5 8 -10 11 -10 2 0 4 5 4 10 0 6 -5 10 -11 10 -5 0
-7 -4 -4 -10z"/>
<path d="M2342 1091 c-9 -5 -3 -8 18 -9 17 0 28 4 25 9 -8 11 -26 11 -43 0z"/>
<path d="M1235 1080 c3 -5 8 -10 11 -10 2 0 4 5 4 10 0 6 -5 10 -11 10 -5 0
-7 -4 -4 -10z"/>
<path d="M1645 1080 c3 -5 8 -10 11 -10 2 0 4 5 4 10 0 6 -5 10 -11 10 -5 0
-7 -4 -4 -10z"/>
<path d="M1700 1080 c0 -5 5 -10 11 -10 5 0 7 5 4 10 -3 6 -8 10 -11 10 -2 0
-4 -4 -4 -10z"/>
<path d="M958 1068 c5 -5 16 -8 23 -6 8 3 3 7 -10 11 -17 4 -21 3 -13 -5z"/>
<path d="M592 1058 c2 -6 11 -12 20 -14 8 -1 31 -5 49 -8 37 -7 20 3 -39 22
-24 8 -32 8 -30 0z"/>
<path d="M740 1060 c0 -5 7 -10 16 -10 8 0 12 5 9 10 -3 6 -10 10 -16 10 -5 0
-9 -4 -9 -10z"/>
<path d="M1266 1055 c4 -8 8 -15 10 -15 2 0 4 7 4 15 0 8 -4 15 -10 15 -5 0
-7 -7 -4 -15z"/>
<path d="M1311 1054 c0 -11 3 -14 6 -6 3 7 2 16 -1 19 -3 4 -6 -2 -5 -13z"/>
<path d="M1597 1054 c3 -7 9 -14 14 -14 14 0 10 17 -5 23 -10 4 -13 1 -9 -9z"/>
<path d="M2266 1045 c10 -8 26 -14 34 -14 9 0 4 6 -10 14 -33 19 -49 19 -24 0z"/>
<path d="M1020 1039 c0 -5 5 -7 10 -4 6 3 10 8 10 11 0 2 -4 4 -10 4 -5 0 -10
-5 -10 -11z"/>
<path d="M1990 1031 c0 -5 7 -15 17 -22 15 -13 15 -12 4 9 -12 23 -21 28 -21
13z"/>
<path d="M700 1026 c0 -2 7 -6 15 -10 8 -3 15 -1 15 4 0 6 -7 10 -15 10 -8 0
-15 -2 -15 -4z"/>
<path d="M1320 1019 c0 -5 5 -7 10 -4 6 3 10 8 10 11 0 2 -4 4 -10 4 -5 0 -10
-5 -10 -11z"/>
<path d="M1447 1011 c-3 -14 0 -21 9 -21 16 0 18 9 5 28 -6 10 -10 9 -14 -7z"/>
<path d="M1586 1008 c24 -77 36 -91 21 -23 -6 25 -14 45 -19 45 -5 0 -6 -10
-2 -22z"/>
<path d="M2066 1017 c-17 -12 -17 -14 1 -28 16 -13 17 -13 4 4 -18 23 -6 21
29 -5 24 -17 33 -19 43 -9 10 10 8 11 -6 5 -13 -5 -16 -2 -11 11 5 13 2 16
-17 13 -15 -2 -23 2 -21 10 3 15 0 15 -22 -1z"/>
<path d="M1350 1005 c-8 -9 -8 -15 -2 -15 12 0 26 19 19 26 -2 2 -10 -2 -17
-11z"/>
<path d="M784 998 c-5 -8 -2 -9 9 -5 9 3 32 0 50 -8 19 -8 37 -11 41 -8 8 8
-49 33 -75 33 -10 0 -21 -5 -25 -12z"/>
<path d="M1525 1000 c-3 -5 1 -10 10 -10 9 0 13 5 10 10 -3 6 -8 10 -10 10 -2
0 -7 -4 -10 -10z"/>
<path d="M1691 994 c0 -11 3 -14 6 -6 3 7 2 16 -1 19 -3 4 -6 -2 -5 -13z"/>
<path d="M1770 996 c0 -8 4 -17 9 -20 5 -4 7 3 4 14 -6 23 -13 26 -13 6z"/>
<path d="M1230 983 c-14 -7 -18 -13 -10 -13 17 0 47 17 40 23 -3 2 -16 -2 -30
-10z"/>
<path d="M1310 991 c0 -5 5 -13 10 -16 6 -3 10 -2 10 4 0 5 -4 13 -10 16 -5 3
-10 2 -10 -4z"/>
<path d="M2036 985 c4 -8 10 -15 16 -15 5 0 6 -5 2 -12 -5 -7 -3 -8 6 -3 7 4
16 2 21 -6 5 -8 9 -9 9 -3 0 5 -13 20 -30 32 -20 15 -28 18 -24 7z"/>
<path d="M420 986 c0 -2 16 -6 35 -8 19 -2 35 0 35 4 0 4 -16 8 -35 8 -19 0
-35 -2 -35 -4z"/>
<path d="M900 981 c0 -9 45 -31 63 -31 6 0 3 6 -8 13 -28 19 -55 28 -55 18z"/>
<path d="M987 959 c-3 -10 -2 -17 3 -14 9 6 93 -40 110 -60 14 -17 30 -20 30
-6 0 5 -17 20 -37 32 -21 13 -41 27 -44 32 -3 4 -18 14 -32 22 -23 11 -26 11
-30 -6z"/>
<path d="M410 960 c0 -5 10 -10 23 -10 18 0 19 2 7 10 -19 13 -30 13 -30 0z"/>
<path d="M598 958 c6 -6 18 -8 28 -6 14 3 12 5 -9 10 -19 3 -25 2 -19 -4z"/>
<path d="M1450 935 c0 -19 2 -35 4 -35 2 0 6 16 8 35 2 19 0 35 -4 35 -4 0 -8
-16 -8 -35z"/>
<path d="M1896 962 c-3 -5 1 -9 9 -9 8 0 12 4 9 9 -3 4 -7 8 -9 8 -2 0 -6 -4
-9 -8z"/>
<path d="M2158 963 c6 -2 18 -2 25 0 6 3 1 5 -13 5 -14 0 -19 -2 -12 -5z"/>
<path d="M1105 950 c4 -6 11 -8 16 -5 14 9 11 15 -7 15 -8 0 -12 -5 -9 -10z"/>
<path d="M1140 950 c0 -5 11 -10 24 -10 14 0 28 5 31 10 4 6 -7 10 -24 10 -17
0 -31 -4 -31 -10z"/>
<path d="M1836 943 c-4 -10 0 -23 11 -32 16 -15 16 -15 4 2 -18 23 -7 34 16
16 15 -11 15 -10 -1 9 -23 26 -22 26 -30 5z"/>
<path d="M1266 937 c3 -10 9 -15 12 -12 3 3 0 11 -7 18 -10 9 -11 8 -5 -6z"/>
<path d="M410 930 c0 -6 5 -8 10 -5 6 4 50 -3 98 -14 87 -20 142 -23 142 -8 0
5 -12 7 -27 6 -47 -4 -79 1 -66 9 7 4 -7 8 -30 9 -23 1 -61 5 -84 8 -30 5 -43
4 -43 -5z"/>
<path d="M1300 919 c-7 -11 -10 -23 -7 -25 2 -2 9 7 15 21 14 30 7 33 -8 4z"/>
<path d="M2013 933 c9 -2 23 -2 30 0 6 3 -1 5 -18 5 -16 0 -22 -2 -12 -5z"/>
<path d="M755 918 c11 -6 23 -16 27 -22 4 -6 10 -7 14 -3 9 9 -25 36 -46 36
-10 0 -9 -3 5 -11z"/>
<path d="M1196 921 c-4 -5 3 -7 14 -4 23 6 26 13 6 13 -8 0 -17 -4 -20 -9z"/>
<path d="M1045 900 c3 -5 11 -10 16 -10 6 0 7 5 4 10 -3 6 -11 10 -16 10 -6 0
-7 -4 -4 -10z"/>
<path d="M400 890 c8 -5 33 -9 55 -9 35 1 37 2 15 9 -14 4 -38 8 -55 9 -23 0
-26 -2 -15 -9z"/>
<path d="M1518 858 c5 -71 10 -77 11 -15 0 31 -2 57 -7 57 -4 0 -6 -19 -4 -42z"/>
<path d="M2360 880 c-9 -6 -10 -10 -3 -10 6 0 15 5 18 10 8 12 4 12 -15 0z"/>
<path d="M916 871 c-3 -5 1 -14 8 -20 10 -9 16 -9 21 -1 4 6 1 9 -7 8 -7 -2
-12 3 -10 10 2 14 -4 16 -12 3z"/>
<path d="M1620 865 c0 -9 6 -12 15 -9 9 4 18 -2 24 -17 5 -13 10 -17 10 -9 1
20 -10 35 -31 43 -12 4 -18 1 -18 -8z"/>
<path d="M987 854 c6 -15 23 -19 23 -5 0 5 -7 11 -14 14 -10 4 -13 1 -9 -9z"/>
<path d="M1148 863 c7 -3 16 -2 19 1 4 3 -2 6 -13 5 -11 0 -14 -3 -6 -6z"/>
<path d="M2230 860 c0 -5 5 -10 10 -10 6 0 10 5 10 10 0 6 -4 10 -10 10 -5 0
-10 -4 -10 -10z"/>
<path d="M1560 844 c0 -8 5 -12 10 -9 6 4 8 11 5 16 -9 14 -15 11 -15 -7z"/>
<path d="M1695 850 c-4 -6 7 -10 27 -9 27 0 30 2 13 9 -27 12 -33 12 -40 0z"/>
<path d="M425 840 c38 -12 141 -23 132 -13 -9 9 -26 12 -102 18 -48 4 -54 3
-30 -5z"/>
<path d="M825 840 c28 -12 37 -12 30 0 -3 6 -16 10 -28 9 -21 0 -21 -1 -2 -9z"/>
<path d="M957 843 c-3 -5 5 -15 18 -21 15 -7 25 -8 25 -2 0 6 -6 10 -14 10 -8
0 -16 5 -18 12 -3 8 -6 9 -11 1z"/>
<path d="M900 830 c0 -5 5 -10 11 -10 5 0 7 5 4 10 -3 6 -8 10 -11 10 -2 0 -4
-4 -4 -10z"/>
<path d="M1392 820 c0 -14 2 -19 5 -12 2 6 2 18 0 25 -3 6 -5 1 -5 -13z"/>
<path d="M410 820 c0 -6 7 -10 15 -10 8 0 15 2 15 4 0 2 -7 6 -15 10 -8 3 -15
1 -15 -4z"/>
<path d="M720 826 c0 -2 7 -6 15 -10 8 -3 15 -1 15 4 0 6 -7 10 -15 10 -8 0
-15 -2 -15 -4z"/>
<path d="M1857 823 c-10 -9 -9 -23 2 -23 5 0 11 7 15 15 5 15 -5 20 -17 8z"/>
<path d="M576 811 c12 -12 133 -30 139 -21 3 4 -21 12 -52 19 -69 14 -100 14
-87 2z"/>
<path d="M1042 804 c16 -16 78 -36 78 -26 0 4 -21 15 -46 24 -37 13 -44 14
-32 2z"/>
<path d="M1195 810 c3 -5 11 -10 16 -10 6 0 7 5 4 10 -3 6 -11 10 -16 10 -6 0
-7 -4 -4 -10z"/>
<path d="M920 799 c0 -5 5 -7 10 -4 6 3 10 8 10 11 0 2 -4 4 -10 4 -5 0 -10
-5 -10 -11z"/>
<path d="M1358 768 c-13 -29 -14 -37 -4 -29 13 11 31 60 24 66 -2 2 -11 -15
-20 -37z"/>
<path d="M396 783 c-5 -11 -2 -14 10 -9 8 3 27 6 41 6 33 0 27 5 -14 13 -23 5
-33 2 -37 -10z"/>
<path d="M758 783 c7 -3 16 -2 19 1 4 3 -2 6 -13 5 -11 0 -14 -3 -6 -6z"/>
<path d="M795 779 c-3 -5 7 -11 22 -14 15 -4 38 -11 51 -16 29 -11 42 -12 42
0 0 15 -107 43 -115 30z"/>
<path d="M956 776 c3 -9 11 -16 16 -16 13 0 5 23 -10 28 -7 2 -10 -2 -6 -12z"/>
<path d="M455 763 c-22 -3 -44 -8 -49 -13 -6 -6 -1 -8 13 -5 12 2 47 5 77 6
30 1 57 6 60 11 5 8 -25 8 -101 1z"/>
<path d="M620 759 c0 -5 13 -8 30 -7 34 3 31 10 -5 14 -14 1 -25 -2 -25 -7z"/>
<path d="M1005 750 c-3 -5 -1 -10 4 -10 6 0 11 5 11 10 0 6 -2 10 -4 10 -3 0
-8 -4 -11 -10z"/>
<path d="M1257 743 c7 -19 28 -43 37 -43 2 0 -2 14 -10 30 -16 32 -38 42 -27
13z"/>
<path d="M1551 744 c0 -11 3 -14 6 -6 3 7 2 16 -1 19 -3 4 -6 -2 -5 -13z"/>
<path d="M1470 725 c1 -26 2 -28 11 -12 8 14 8 22 0 30 -8 8 -11 3 -11 -18z"/>
<path d="M1746 735 c-3 -9 0 -15 9 -15 16 0 20 16 6 24 -5 3 -11 -1 -15 -9z"/>
<path d="M920 736 c0 -2 7 -6 15 -10 8 -3 15 -1 15 4 0 6 -7 10 -15 10 -8 0
-15 -2 -15 -4z"/>
<path d="M1050 730 l-35 -7 32 -2 c17 0 35 4 38 9 3 6 5 9 3 9 -2 -1 -19 -5
-38 -9z"/>
<path d="M1690 736 c0 -9 30 -14 35 -6 4 6 -3 10 -14 10 -12 0 -21 -2 -21 -4z"/>
<path d="M2238 733 c7 -3 16 -2 19 1 4 3 -2 6 -13 5 -11 0 -14 -3 -6 -6z"/>
<path d="M395 720 c-11 -5 -15 -9 -10 -9 6 -1 3 -6 -5 -11 -13 -8 -13 -10 2
-10 9 0 23 6 31 14 8 8 32 16 53 19 39 4 39 4 -6 5 -25 0 -54 -3 -65 -8z"/>
<path d="M1219 711 c6 -10 8 -21 5 -23 -3 -3 2 -8 10 -11 9 -4 18 -2 21 3 4 6
1 10 -4 10 -6 0 -11 6 -11 14 0 8 -7 16 -15 20 -12 4 -13 2 -6 -13z"/>
<path d="M558 713 c7 -3 16 -2 19 1 4 3 -2 6 -13 5 -11 0 -14 -3 -6 -6z"/>
<path d="M1150 710 c0 -5 5 -10 11 -10 5 0 7 5 4 10 -3 6 -8 10 -11 10 -2 0
-4 -4 -4 -10z"/>
<path d="M1420 700 c0 -5 5 -10 11 -10 5 0 7 5 4 10 -3 6 -8 10 -11 10 -2 0
-4 -4 -4 -10z"/>
<path d="M1807 694 c3 -7 9 -14 14 -14 14 0 10 17 -5 23 -10 4 -13 1 -9 -9z"/>
<path d="M1010 690 c20 -13 33 -13 25 0 -3 6 -14 10 -23 10 -15 0 -15 -2 -2
-10z"/>
<path d="M2123 693 c9 -2 23 -2 30 0 6 3 -1 5 -18 5 -16 0 -22 -2 -12 -5z"/>
<path d="M618 683 c7 -3 16 -2 19 1 4 3 -2 6 -13 5 -11 0 -14 -3 -6 -6z"/>
<path d="M798 683 c6 -2 18 -2 25 0 6 3 1 5 -13 5 -14 0 -19 -2 -12 -5z"/>
<path d="M890 680 l-55 -7 56 -1 c31 -1 69 -4 85 -6 16 -2 22 -1 14 1 -8 3
-19 9 -24 14 -6 5 -12 8 -15 7 -4 -1 -31 -4 -61 -8z"/>
<path d="M388 673 c7 -3 16 -2 19 1 4 3 -2 6 -13 5 -11 0 -14 -3 -6 -6z"/>
<path d="M480 670 c0 -5 10 -10 23 -10 18 0 19 2 7 10 -19 13 -30 13 -30 0z"/>
<path d="M1140 670 c0 -5 7 -7 15 -4 8 4 15 8 15 10 0 2 -7 4 -15 4 -8 0 -15
-4 -15 -10z"/>
<path d="M1635 670 c-3 -5 -1 -10 4 -10 6 0 11 5 11 10 0 6 -2 10 -4 10 -3 0
-8 -4 -11 -10z"/>
<path d="M428 663 c6 -2 18 -2 25 0 6 3 1 5 -13 5 -14 0 -19 -2 -12 -5z"/>
<path d="M1110 660 c0 -5 5 -10 10 -10 6 0 10 5 10 10 0 6 -4 10 -10 10 -5 0
-10 -4 -10 -10z"/>
<path d="M1698 663 c6 -2 18 -2 25 0 6 3 1 5 -13 5 -14 0 -19 -2 -12 -5z"/>
<path d="M1275 650 c28 -12 45 -12 45 0 0 6 -15 10 -32 9 -28 0 -30 -2 -13 -9z"/>
<path d="M1443 653 c-7 -2 -13 -9 -13 -15 0 -7 4 -7 13 0 6 5 21 12 32 15 20
5 20 5 0 5 -11 0 -26 -2 -32 -5z"/>
<path d="M362 621 c-12 -10 -22 -21 -22 -25 0 -3 -9 -15 -21 -27 -11 -11 -18
-24 -14 -27 3 -4 10 -1 14 6 4 7 14 10 23 7 8 -3 21 1 28 10 7 8 27 15 44 16
17 0 24 3 16 6 -8 3 -17 10 -20 14 -3 5 -18 2 -33 -6 -15 -7 -27 -10 -27 -5 0
5 17 18 38 29 28 15 32 20 16 21 -12 0 -31 -8 -42 -19z"/>
<path d="M1065 629 c-9 -13 -8 -14 40 -27 22 -6 51 -14 64 -18 16 -5 22 -4 17
4 -3 6 -21 13 -39 17 -17 4 -42 13 -54 21 -15 9 -24 10 -28 3z"/>
<path d="M468 623 c7 -3 16 -2 19 1 4 3 -2 6 -13 5 -11 0 -14 -3 -6 -6z"/>
<path d="M2448 623 c7 -3 16 -2 19 1 4 3 -2 6 -13 5 -11 0 -14 -3 -6 -6z"/>
<path d="M1388 613 c7 -3 16 -2 19 1 4 3 -2 6 -13 5 -11 0 -14 -3 -6 -6z"/>
<path d="M1617 607 c-4 -10 3 -12 27 -9 27 4 28 6 11 13 -29 11 -32 11 -38 -4z"/>
<path d="M1690 610 c0 -5 7 -10 16 -10 8 0 12 5 9 10 -3 6 -10 10 -16 10 -5 0
-9 -4 -9 -10z"/>
<path d="M540 601 c0 -6 5 -13 12 -17 6 -4 8 -3 4 4 -3 6 3 12 16 15 20 4 19
4 -4 6 -16 0 -28 -3 -28 -8z"/>
<path d="M1758 603 c7 -3 16 -2 19 1 4 3 -2 6 -13 5 -11 0 -14 -3 -6 -6z"/>
<path d="M2483 603 c9 -2 23 -2 30 0 6 3 -1 5 -18 5 -16 0 -22 -2 -12 -5z"/>
<path d="M479 583 c-13 -15 -12 -15 11 -3 34 17 36 20 18 20 -9 0 -22 -7 -29
-17z"/>
<path d="M780 590 c0 -5 5 -10 11 -10 5 0 7 5 4 10 -3 6 -8 10 -11 10 -2 0 -4
-4 -4 -10z"/>
<path d="M1295 590 c-3 -5 -2 -10 4 -10 5 0 18 -3 28 -7 16 -6 16 -5 4 10 -15
19 -27 22 -36 7z"/>
<path d="M858 583 c7 -3 16 -2 19 1 4 3 -2 6 -13 5 -11 0 -14 -3 -6 -6z"/>
<path d="M1453 583 c9 -2 25 -2 35 0 9 3 1 5 -18 5 -19 0 -27 -2 -17 -5z"/>
<path d="M1120 570 c0 -6 -11 -8 -24 -6 -14 2 -29 -1 -35 -7 -7 -9 2 -11 35
-8 29 2 44 8 44 17 0 8 -4 14 -10 14 -5 0 -10 -5 -10 -10z"/>
<path d="M1528 573 c12 -2 30 -2 40 0 9 3 -1 5 -23 4 -22 0 -30 -2 -17 -4z"/>
<path d="M976 555 c-15 -8 -38 -15 -49 -15 -11 0 -18 -2 -15 -5 9 -9 108 7
102 16 -3 5 2 6 10 3 9 -3 16 -1 16 5 0 15 -30 14 -64 -4z"/>
<path d="M1190 561 c0 -10 19 -25 25 -20 1 2 -3 10 -11 17 -8 7 -14 8 -14 3z"/>
<path d="M1258 558 c6 -6 18 -8 28 -6 14 3 12 5 -9 10 -19 3 -25 2 -19 -4z"/>
<path d="M380 535 c-50 -26 -64 -30 -55 -15 3 6 3 10 0 10 -10 0 -65 -30 -65
-36 0 -2 9 0 19 6 27 14 36 13 22 -4 -9 -10 -8 -15 4 -20 9 -3 15 0 15 8 0 15
29 26 70 26 20 0 22 2 10 11 -11 8 -8 9 15 5 22 -5 26 -4 15 4 -13 9 -13 11 0
20 28 18 -4 8 -50 -15z"/>
<path d="M1377 549 c7 -7 15 -10 18 -7 3 3 -2 9 -12 12 -14 6 -15 5 -6 -5z"/>
<path d="M668 543 c7 -3 16 -2 19 1 4 3 -2 6 -13 5 -11 0 -14 -3 -6 -6z"/>
<path d="M1518 543 c6 -2 18 -2 25 0 6 3 1 5 -13 5 -14 0 -19 -2 -12 -5z"/>
<path d="M551 519 c-13 -5 -32 -7 -42 -4 -9 3 -20 1 -24 -5 -3 -6 -10 -8 -15
-5 -5 3 -26 -1 -46 -10 -44 -18 -47 -18 -37 -2 4 6 -5 4 -20 -6 -15 -9 -27
-14 -27 -10 0 5 -5 1 -10 -9 -6 -10 -19 -15 -32 -12 -21 4 -22 4 -3 -5 19 -9
18 -12 -5 -15 -10 -1 -14 -14 -6 -18 2 -2 19 8 38 22 18 14 36 24 40 23 10 -4
112 28 125 39 8 6 18 6 31 -1 17 -9 61 5 81 25 8 7 -23 3 -48 -7z"/>
<path d="M240 509 c0 -5 5 -7 10 -4 6 3 10 8 10 11 0 2 -4 4 -10 4 -5 0 -10
-5 -10 -11z"/>
<path d="M728 513 c7 -3 16 -2 19 1 4 3 -2 6 -13 5 -11 0 -14 -3 -6 -6z"/>
<path d="M835 509 c-11 -17 -2 -18 25 -4 24 14 24 14 3 15 -12 0 -25 -5 -28
-11z"/>
<path d="M1248 513 c7 -3 16 -2 19 1 4 3 -2 6 -13 5 -11 0 -14 -3 -6 -6z"/>
<path d="M1490 510 c0 -5 5 -10 11 -10 5 0 7 5 4 10 -3 6 -8 10 -11 10 -2 0
-4 -4 -4 -10z"/>
<path d="M940 501 c0 -5 -13 -23 -29 -40 -34 -36 -21 -42 18 -8 25 22 38 57
20 57 -5 0 -9 -4 -9 -9z"/>
<path d="M1170 499 c0 -5 4 -8 9 -5 5 3 14 -1 21 -9 7 -8 17 -12 22 -8 6 3 0
12 -13 19 -29 16 -39 17 -39 3z"/>
<path d="M775 490 c-3 -5 -2 -10 4 -10 5 0 13 5 16 10 3 6 2 10 -4 10 -5 0
-13 -4 -16 -10z"/>
<path d="M1041 484 c0 -11 3 -14 6 -6 3 7 2 16 -1 19 -3 4 -6 -2 -5 -13z"/>
<path d="M1273 486 c-9 -11 -7 -13 13 -13 20 0 22 2 13 13 -13 16 -11 16 -26
0z"/>
<path d="M484 475 c-25 -18 -15 -25 14 -9 13 6 20 14 14 18 -5 3 -18 -1 -28
-9z"/>
<path d="M613 483 c9 -2 25 -2 35 0 9 3 1 5 -18 5 -19 0 -27 -2 -17 -5z"/>
<path d="M698 457 c-34 -21 -48 -36 -47 -51 1 -17 2 -18 6 -3 2 9 11 17 19 17
8 0 17 7 20 15 4 8 17 15 29 15 26 0 37 11 27 26 -4 7 -25 -1 -54 -19z"/>
<path d="M1768 483 c7 -3 16 -2 19 1 4 3 -2 6 -13 5 -11 0 -14 -3 -6 -6z"/>
<path d="M2013 455 c-3 -9 -3 -18 -1 -21 3 -3 8 4 11 16 6 23 -1 27 -10 5z"/>
<path d="M520 450 c-13 -9 -13 -10 0 -9 8 1 26 5 40 9 l25 8 -25 1 c-14 0 -32
-4 -40 -9z"/>
<path d="M1230 449 c0 -5 9 -9 20 -9 11 0 20 2 20 4 0 2 -9 6 -20 9 -11 3 -20
1 -20 -4z"/>
<path d="M1285 450 c-4 -6 5 -10 20 -10 15 0 24 4 20 10 -3 6 -12 10 -20 10
-8 0 -17 -4 -20 -10z"/>
<path d="M1445 450 c3 -5 8 -10 11 -10 2 0 4 5 4 10 0 6 -5 10 -11 10 -5 0 -7
-4 -4 -10z"/>
<path d="M360 435 c-14 -8 -19 -14 -10 -14 8 0 24 6 34 14 25 19 9 19 -24 0z"/>
<path d="M193 423 c9 -2 23 -2 30 0 6 3 -1 5 -18 5 -16 0 -22 -2 -12 -5z"/>
<path d="M1115 417 c-16 -5 -36 -11 -43 -13 -15 -4 -7 -24 9 -24 6 0 7 5 3 12
-5 8 5 9 39 5 46 -7 59 1 35 20 -8 6 -24 6 -43 0z"/>
<path d="M1317 416 c-4 -10 -1 -13 9 -9 15 6 19 23 5 23 -5 0 -11 -7 -14 -14z"/>
<path d="M1463 423 c9 -2 23 -2 30 0 6 3 -1 5 -18 5 -16 0 -22 -2 -12 -5z"/>
<path d="M237 406 c-10 -8 -14 -16 -10 -19 5 -3 14 3 21 14 14 22 13 23 -11 5z"/>
<path d="M819 415 c-1 -3 -3 -8 -4 -12 -1 -5 -6 -23 -10 -40 -4 -18 -12 -33
-17 -33 -5 0 -6 -4 -3 -10 3 -5 1 -19 -6 -31 -8 -16 -8 -20 1 -14 21 13 65
145 48 145 -4 0 -9 -2 -9 -5z"/>
<path d="M1208 413 c7 -3 16 -2 19 1 4 3 -2 6 -13 5 -11 0 -14 -3 -6 -6z"/>
<path d="M293 403 c-7 -3 -13 -10 -13 -17 0 -17 -24 -66 -32 -66 -4 0 -5 -6
-2 -14 3 -7 -6 -26 -20 -41 -27 -29 -36 -56 -13 -36 22 18 27 1 12 -36 -19
-44 -19 -53 0 -29 8 11 18 16 22 12 4 -4 -10 -23 -32 -41 -21 -19 -36 -37 -32
-41 4 -4 7 -3 7 2 0 6 15 16 34 24 22 8 32 18 29 27 -3 7 -1 13 5 13 6 0 12
-5 14 -11 4 -13 89 49 96 70 2 7 -5 4 -16 -7 -33 -33 -70 -54 -82 -47 -15 9
-12 25 4 19 11 -4 13 0 9 15 -5 20 -6 20 -18 4 -8 -10 -17 -15 -21 -11 -4 4
-1 14 6 23 7 8 9 15 5 15 -5 0 0 9 10 20 22 24 9 27 -17 3 -31 -27 -20 0 12
30 16 16 27 34 24 42 -8 21 17 74 33 68 7 -3 13 -3 13 0 0 8 -24 14 -37 10z"/>
<path d="M349 387 c4 -11 18 -21 30 -22 13 -1 26 -8 31 -15 5 -8 13 -9 25 -3
15 9 12 11 -15 16 -18 4 -29 11 -25 17 4 6 12 7 18 4 9 -5 9 -3 0 6 -7 7 -25
14 -42 15 -25 1 -28 -1 -22 -18z m31 -2 c-7 -9 -15 -13 -17 -11 -7 7 7 26 19
26 6 0 6 -6 -2 -15z"/>
<path d="M470 390 c0 -5 5 -10 11 -10 5 0 7 5 4 10 -3 6 -8 10 -11 10 -2 0 -4
-4 -4 -10z"/>
<path d="M717 370 c-3 -11 -1 -20 4 -20 5 0 9 9 9 20 0 11 -2 20 -4 20 -2 0
-6 -9 -9 -20z"/>
<path d="M570 370 c0 -5 7 -7 15 -4 8 4 15 8 15 10 0 2 -7 4 -15 4 -8 0 -15
-4 -15 -10z"/>
<path d="M1168 373 c6 -2 18 -2 25 0 6 3 1 5 -13 5 -14 0 -19 -2 -12 -5z"/>
<path d="M1088 363 c7 -3 16 -2 19 1 4 3 -2 6 -13 5 -11 0 -14 -3 -6 -6z"/>
<path d="M301 350 c-7 -4 -12 -13 -10 -19 3 -8 10 -8 23 2 21 15 9 31 -13 17z"/>
<path d="M514 339 c-19 -22 -19 -22 3 -10 24 12 39 31 25 31 -5 0 -17 -10 -28
-21z"/>
<path d="M1000 349 c0 -5 5 -7 10 -4 6 3 10 8 10 11 0 2 -4 4 -10 4 -5 0 -10
-5 -10 -11z"/>
<path d="M1040 350 c0 -5 5 -10 11 -10 5 0 7 5 4 10 -3 6 -8 10 -11 10 -2 0
-4 -4 -4 -10z"/>
<path d="M1300 340 c0 -5 5 -10 10 -10 6 0 10 5 10 10 0 6 -4 10 -10 10 -5 0
-10 -4 -10 -10z"/>
<path d="M2408 343 c7 -3 16 -2 19 1 4 3 -2 6 -13 5 -11 0 -14 -3 -6 -6z"/>
<path d="M410 300 c-30 -22 -57 -45 -58 -50 -2 -6 -7 -8 -12 -5 -4 3 -18 -3
-30 -13 -21 -17 -21 -19 -6 -25 10 -4 15 -3 11 3 -3 6 6 15 22 21 15 6 36 18
47 27 10 9 20 16 22 14 2 -1 18 14 35 33 17 19 29 35 28 35 -2 0 -29 -19 -59
-40z"/>
<path d="M545 329 c-4 -6 -5 -12 -2 -15 2 -3 7 2 10 11 7 17 1 20 -8 4z"/>
<path d="M375 320 c-3 -5 1 -10 9 -10 9 0 16 5 16 10 0 6 -4 10 -9 10 -6 0
-13 -4 -16 -10z"/>
<path d="M561 308 c-14 -23 -14 -23 8 -4 22 20 25 26 13 26 -4 0 -13 -10 -21
-22z"/>
<path d="M1538 323 c7 -3 16 -2 19 1 4 3 -2 6 -13 5 -11 0 -14 -3 -6 -6z"/>
<path d="M185 299 c-4 -11 -4 -23 -1 -26 3 -4 6 1 6 10 0 10 5 17 10 17 6 0
10 5 10 10 0 18 -19 10 -25 -11z"/>
<path d="M475 310 c-3 -5 -1 -10 4 -10 6 0 11 5 11 10 0 6 -2 10 -4 10 -3 0
-8 -4 -11 -10z"/>
<path d="M1450 311 c0 -5 7 -11 15 -15 8 -3 15 -1 15 3 0 5 -7 11 -15 15 -8 3
-15 1 -15 -3z"/>
<path d="M951 294 c0 -11 3 -14 6 -6 3 7 2 16 -1 19 -3 4 -6 -2 -5 -13z"/>
<path d="M2463 303 c9 -2 25 -2 35 0 9 3 1 5 -18 5 -19 0 -27 -2 -17 -5z"/>
<path d="M340 285 c-17 -10 -20 -14 -9 -15 9 0 22 7 29 15 15 18 12 18 -20 0z"/>
<path d="M996 285 c-3 -8 -1 -15 4 -15 6 0 10 7 10 15 0 8 -2 15 -4 15 -2 0
-6 -7 -10 -15z"/>
<path d="M2411 284 c0 -11 3 -14 6 -6 3 7 2 16 -1 19 -3 4 -6 -2 -5 -13z"/>
<path d="M683 274 c-5 -13 -8 -13 -15 -2 -7 10 -8 9 -4 -4 3 -10 -4 -35 -15
-55 l-21 -38 22 27 c12 16 27 25 35 21 8 -3 15 0 15 7 0 6 -4 8 -10 5 -15 -9
-12 8 6 33 9 13 11 22 4 22 -6 0 -13 -7 -17 -16z"/>
<path d="M1358 283 c7 -3 16 -2 19 1 4 3 -2 6 -13 5 -11 0 -14 -3 -6 -6z"/>
<path d="M1925 280 c3 -5 8 -10 11 -10 2 0 4 5 4 10 0 6 -5 10 -11 10 -5 0 -7
-4 -4 -10z"/>
<path d="M1588 273 c6 -2 18 -2 25 0 6 3 1 5 -13 5 -14 0 -19 -2 -12 -5z"/>
<path d="M2438 273 c6 -2 18 -2 25 0 6 3 1 5 -13 5 -14 0 -19 -2 -12 -5z"/>
<path d="M485 260 c-3 -5 1 -10 10 -10 9 0 13 5 10 10 -3 6 -8 10 -10 10 -2 0
-7 -4 -10 -10z"/>
<path d="M588 263 c7 -3 16 -2 19 1 4 3 -2 6 -13 5 -11 0 -14 -3 -6 -6z"/>
<path d="M942 246 c1 -14 6 -22 10 -20 12 7 10 44 -2 44 -5 0 -9 -11 -8 -24z"/>
<path d="M970 252 c0 -15 71 -35 83 -23 8 8 4 11 -15 11 -15 0 -30 5 -33 10
-7 12 -35 13 -35 2z"/>
<path d="M280 239 c0 -5 5 -7 10 -4 6 3 10 8 10 11 0 2 -4 4 -10 4 -5 0 -10
-5 -10 -11z"/>
<path d="M437 226 c-14 -13 -29 -21 -32 -18 -3 4 -3 -1 1 -11 5 -14 1 -17 -17
-15 -18 2 -24 -2 -25 -17 -1 -13 5 -21 15 -21 9 -1 21 -3 26 -5 6 -2 11 0 12
6 2 5 -3 10 -10 11 -32 3 -37 5 -37 15 0 6 8 8 18 5 12 -4 27 3 42 19 12 13
27 22 33 18 6 -3 7 -1 3 5 -3 5 -1 12 6 14 8 3 9 6 1 11 -6 4 -22 -4 -36 -17z"/>
<path d="M840 230 c0 -11 2 -20 4 -20 2 0 6 9 9 20 3 11 1 20 -4 20 -5 0 -9
-9 -9 -20z"/>
<path d="M569 214 c-5 -15 -12 -30 -14 -35 -3 -4 4 -5 14 -2 12 3 17 11 14 19
-3 8 0 21 7 29 9 11 9 15 1 15 -6 0 -16 -12 -22 -26z"/>
<path d="M1396 227 c3 -10 9 -15 12 -12 3 3 0 11 -7 18 -10 9 -11 8 -5 -6z"/>
<path d="M1950 226 c0 -2 7 -9 15 -16 13 -11 14 -10 9 4 -5 14 -24 23 -24 12z"/>
<path d="M516 194 c-15 -17 -22 -33 -18 -43 6 -14 7 -14 10 2 2 9 8 17 13 17
5 0 9 5 9 11 0 7 8 18 18 25 9 8 12 14 5 14 -7 0 -23 -12 -37 -26z"/>
<path d="M1050 200 c0 -6 7 -10 15 -10 8 0 15 2 15 4 0 2 -7 6 -15 10 -8 3
-15 1 -15 -4z"/>
<path d="M1201 194 c0 -11 3 -14 6 -6 3 7 2 16 -1 19 -3 4 -6 -2 -5 -13z"/>
<path d="M667 183 c-4 -3 -7 -11 -7 -17 0 -6 5 -5 12 2 6 6 9 14 7 17 -3 3 -9
2 -12 -2z"/>
<path d="M1506 175 c-3 -8 -1 -15 4 -15 13 0 22 18 11 24 -5 3 -11 -1 -15 -9z"/>
<path d="M771 164 c0 -11 3 -14 6 -6 3 7 2 16 -1 19 -3 4 -6 -2 -5 -13z"/>
<path d="M607 163 c-4 -3 -7 -11 -7 -17 0 -6 5 -5 12 2 6 6 9 14 7 17 -3 3 -9
2 -12 -2z"/>
<path d="M1555 150 c3 -5 16 -10 28 -9 21 0 21 1 2 9 -28 12 -37 12 -30 0z"/>
<path d="M444 128 c-4 -13 -15 -29 -26 -36 -10 -8 -17 -19 -15 -25 2 -7 -4
-23 -15 -36 -23 -31 -12 -44 12 -14 10 13 23 23 29 23 10 0 15 16 14 48 -1 6
4 12 9 12 6 0 8 7 4 15 -3 8 -1 15 4 15 6 0 10 5 10 10 0 19 -19 10 -26 -12z
m-12 -60 c-6 -6 -15 -8 -19 -4 -4 4 -1 11 7 16 19 12 27 3 12 -12z"/>
<path d="M482 135 c1 -11 -6 -35 -15 -53 -22 -40 -11 -76 14 -46 12 16 12 17
-3 11 -23 -8 -23 -2 3 39 16 26 18 37 9 51 -10 17 -10 17 -8 -2z"/>
<path d="M1145 140 c3 -5 8 -10 11 -10 2 0 4 5 4 10 0 6 -5 10 -11 10 -5 0 -7
-4 -4 -10z"/>
<path d="M1452 130 c0 -14 2 -19 5 -12 2 6 2 18 0 25 -3 6 -5 1 -5 -13z"/>
<path d="M826 125 c-3 -8 -1 -15 4 -15 6 0 10 7 10 15 0 8 -2 15 -4 15 -2 0
-6 -7 -10 -15z"/>
<path d="M1320 125 c0 -8 4 -15 10 -15 5 0 7 7 4 15 -4 8 -8 15 -10 15 -2 0
-4 -7 -4 -15z"/>
<path d="M355 120 c-13 -6 -15 -9 -5 -9 8 0 22 4 30 9 18 12 2 12 -25 0z"/>
<path d="M907 124 c-15 -15 -6 -22 26 -21 17 1 31 7 30 12 -3 12 -46 19 -56 9z"/>
<path d="M1975 120 c3 -5 8 -10 11 -10 2 0 4 5 4 10 0 6 -5 10 -11 10 -5 0 -7
-4 -4 -10z"/>
<path d="M272 101 c7 -12 18 -17 27 -13 14 6 14 7 -1 10 -10 2 -18 8 -18 13 0
5 -5 9 -10 9 -6 0 -6 -7 2 -19z"/>
<path d="M636 111 c-4 -6 -4 -15 -1 -21 3 -5 1 -10 -4 -10 -6 0 -11 -4 -11
-10 0 -18 19 -11 31 11 12 23 -3 51 -15 30z"/>
<path d="M1556 105 c4 -8 7 -15 9 -15 2 0 5 7 9 15 3 9 0 15 -9 15 -9 0 -12
-6 -9 -15z"/>
<path d="M1883 113 c9 -2 23 -2 30 0 6 3 -1 5 -18 5 -16 0 -22 -2 -12 -5z"/>
<path d="M579 106 c-6 -3 -4 -106 1 -106 4 0 14 8 21 17 12 15 12 16 -2 11
-14 -5 -17 0 -16 27 0 19 4 32 8 29 4 -2 9 2 12 9 4 10 -13 19 -24 13z"/>
<path d="M739 105 c-1 -3 -2 -8 -3 -12 -1 -5 -5 -14 -10 -21 -9 -14 0 -30 10
-19 8 7 14 57 8 57 -2 0 -5 -2 -5 -5z"/>
<path d="M2540 100 c-13 -8 -12 -10 3 -10 9 0 17 5 17 10 0 12 -1 12 -20 0z"/>
<path d="M230 81 c0 -5 -7 -16 -15 -25 -8 -8 -11 -17 -7 -20 5 -3 22 8 37 24
28 29 28 30 7 30 -12 0 -22 -4 -22 -9z"/>
<path d="M310 73 c-19 -10 -21 -13 -7 -13 17 0 17 -1 0 -24 -10 -13 -20 -20
-21 -15 -2 6 -10 5 -18 -2 -8 -6 -14 -7 -14 -2 0 6 10 15 23 21 21 10 21 11
-6 11 -24 1 -28 -3 -25 -21 5 -34 40 -31 84 8 21 19 41 34 46 34 4 0 8 3 8 8
0 12 -43 10 -70 -5z"/>
<path d="M1441 64 c0 -11 3 -14 6 -6 3 7 2 16 -1 19 -3 4 -6 -2 -5 -13z"/>
<path d="M1187 51 c3 -12 9 -21 14 -21 14 0 11 16 -5 29 -12 10 -13 8 -9 -8z"/>
<path d="M1873 63 c9 -2 25 -2 35 0 9 3 1 5 -18 5 -19 0 -27 -2 -17 -5z"/>
<path d="M520 50 c0 -7 -7 -22 -17 -32 -14 -16 -14 -18 -1 -18 16 0 34 47 23
58 -3 3 -5 -1 -5 -8z"/>
<path d="M910 43 c0 -10 5 -25 10 -33 8 -13 10 -13 10 2 0 9 3 23 6 32 4 11 1
16 -10 16 -9 0 -16 -8 -16 -17z"/>
<path d="M880 35 c0 -15 18 -40 24 -34 3 3 -1 14 -9 25 -8 10 -14 15 -15 9z"/>
<path d="M1027 20 c-3 -11 -1 -20 4 -20 5 0 9 9 9 20 0 11 -2 20 -4 20 -2 0
-6 -9 -9 -20z"/>
<path d="M436 15 c-3 -9 0 -15 9 -15 9 0 12 6 9 15 -4 8 -7 15 -9 15 -2 0 -5
-7 -9 -15z"/>
<path d="M536 13 c-6 -14 -5 -15 5 -6 7 7 10 15 7 18 -3 3 -9 -2 -12 -12z"/>
<path d="M620 15 c0 -8 2 -15 4 -15 2 0 6 7 10 15 3 8 1 15 -4 15 -6 0 -10 -7
-10 -15z"/>
<path d="M338 3 c7 -3 16 -2 19 1 4 3 -2 6 -13 5 -11 0 -14 -3 -6 -6z"/>
</g>

</svg>
